<?xml version="1.0" encoding="utf-8" ?>
<svg xmlns="http://www.w3.org/2000/svg" xmlns:xlink="http://www.w3.org/1999/xlink" width="1024" height="1024">
	<path fill="#FEFEFE" d="M0 0L1024 0L1024 1024L0 1024L0 0Z"/>
	<path d="M430.142 242.751C431.801 242.924 432.49 242.812 433.821 243.865C436.981 253.726 438.291 264.84 440.329 275.021C441.47 280.723 443.582 287.19 443.773 292.938C443.804 293.868 443.527 294.585 443.18 295.43C441.401 295.513 440.479 295.549 439.132 294.365C436.893 288.362 436.173 281.066 434.894 274.752C433.024 265.527 430.231 255.607 429.473 246.253C429.366 244.929 429.682 243.979 430.142 242.751Z"/>
	<path d="M249.673 354.488L250.453 354.48C259.282 354.436 273.419 357.764 282.442 359.286C290.063 360.572 298.499 361.317 305.923 363.354C307.446 363.772 307.884 363.899 309.005 364.999C309.117 366.524 308.713 367.024 308.048 368.373C302.463 368.33 251.899 359.89 249.499 358.066C249.082 356.545 249.316 355.994 249.673 354.488Z"/>
	<path d="M848.365 616.733C855.513 616.573 882.94 615.169 888.012 618.234C888.417 619.394 888.183 619.632 887.905 620.788C885.178 622.869 869.553 621.621 865.411 621.541C856.865 621.515 848.313 621.427 839.768 621.516C835.237 621.563 829.84 622.448 825.436 621.497C824.578 620.642 824.551 620.588 824.359 619.391L825.004 618.535C830.231 615.834 842.239 616.838 848.365 616.733Z"/>
	<path d="M738.262 722.142C738.874 722.234 739.603 722.331 740.164 722.602C746.187 725.522 771.362 773.282 775.298 781.5C776.2 783.385 775.627 784.142 774.984 785.961C774.187 785.889 773.255 785.852 772.493 785.609C770.825 785.077 769.795 782.276 769.024 780.826C762.56 768.656 755.973 756.442 749.011 744.551C745.551 738.644 741.058 732.674 738.117 726.549C737.361 724.975 737.814 723.717 738.262 722.142Z"/>
	<path d="M313.864 258.115C314.366 258.206 314.828 258.264 315.307 258.471C316.825 259.126 358.118 311.667 360.366 315.974C360.301 317.485 359.8 318.002 359.006 319.264C358.57 319.119 358.075 318.965 357.659 318.78C355.651 317.887 313.748 265.428 312.374 261.501C312.41 259.95 312.967 259.287 313.864 258.115Z"/>
	<path d="M783.31 677.813C785.154 677.944 786.411 678.381 787.972 679.329C795.004 683.602 841.642 720.434 845.585 725.67C846.586 726.999 846.165 727.586 845.839 729.05C845.563 729.104 845.289 729.164 845.012 729.211C843.706 729.43 842.887 729.155 841.78 728.418C838.106 725.976 834.668 722.824 831.244 720.029L810.905 703.256C801.963 695.87 792.595 689.269 783.419 682.21C782.616 680.698 783.025 679.409 783.31 677.813Z"/>
	<path d="M603.25 271.733C620.474 271.059 637.86 271.603 655.102 271.571C676.644 271.53 698.282 271.024 719.814 271.582Q792.131 274.013 864.072 281.765Q888.877 284.077 913.514 287.766C920.567 288.835 927.999 289.593 934.839 291.612C937.514 292.401 940.92 293.651 942.807 295.811C947.565 301.257 946.788 311.963 946.271 318.679C943.398 356.018 925.134 388.284 903.942 418.257C896.808 428.347 888.749 437.768 880.825 447.237Q854.785 478.784 825.445 507.288C803.488 528.445 780.345 548.587 759.413 570.783C744.858 586.219 731.262 602.461 717.171 618.309C686.552 652.745 656.563 686.1 623.818 718.628C611.249 731.114 598.805 743.955 585.276 755.429C581.132 758.943 576.624 762.094 571.443 763.853C540.713 774.286 459.72 769.456 425.623 766.603C409.784 766.175 393.764 764.265 377.974 762.836Q339.266 759.659 300.678 755.253C268.193 751.642 235.908 748.138 203.569 743.319C179.559 739.741 155.465 735.693 132.16 728.749C120.742 725.346 109.332 720.875 100.061 713.199C89.1675 704.18 82.776 690.419 79.8096 676.832C79.3379 674.672 78.4829 672.012 78.476 669.848C78.455 663.216 86.3301 655.832 90.6343 651.311C111.793 629.084 134.244 607.954 156.182 586.504C178.939 564.254 202.009 542.618 225.381 521.021C242.407 505.288 259.509 489.321 277.264 474.426C287.65 465.713 298.428 457.439 308.998 448.947Q353.89 413.059 400.34 379.21Q446.789 345.361 494.702 313.618L535.646 286.675C542.313 282.285 550.093 275.676 557.582 272.957C562.977 270.999 594.57 271.943 603.25 271.733Z"/>
	<path fill="#FEFEFE" d="M940.853 306.945C940.933 307.246 941.038 307.541 941.092 307.848C941.894 312.418 940.645 318.554 940.108 323.152C936.273 355.996 921.037 383.604 902.916 410.625C893.581 424.546 882.589 437.575 871.705 450.31C856.171 468.487 840.006 486.393 822.815 503.028C800.58 524.543 777.218 544.83 755.94 567.34C732.499 592.138 710.45 618.429 687.702 643.885Q652.173 683.77 614.123 721.258C607.335 727.995 588.55 748.408 580.213 749.796C575.633 750.559 571.947 748.666 568.345 746.087C567.316 744.911 566.295 743.734 565.564 742.343C562.962 737.395 564.05 730.851 565.812 725.76C568.069 719.239 572.192 713.384 576.438 708.018C584.123 698.305 592.726 689.27 601.079 680.135Q621.201 658.175 641.597 636.468Q669.832 606.156 697.59 575.406Q719.308 551.858 740.539 527.869Q786.573 474.843 830.348 419.937C839.073 408.878 848.024 397.98 856.604 386.811C868.699 371.068 880.539 354.883 894.211 340.448Q896.71 337.843 899.326 335.355Q901.942 332.867 904.669 330.502Q907.396 328.136 910.229 325.898Q913.061 323.66 915.993 321.554Q918.925 319.448 921.95 317.478Q924.976 315.509 928.088 313.68Q931.201 311.851 934.393 310.166Q937.586 308.482 940.853 306.945Z"/>
	<path fill="#FEFEFE" d="M666.85 276.245C689.726 276.064 712.768 276.128 735.626 277.031Q804.754 279.991 873.502 287.817C889.853 289.616 918.499 292.11 933.511 297.04C936.151 297.907 937.907 298.933 939.962 300.809C922.928 310.661 906.761 319.626 893.017 334.04C877.469 350.346 864.113 368.729 850.501 386.628C842.587 397.034 834.19 407.135 826.104 417.415Q778.449 477.592 727.506 535.012L630.949 640.751C611.347 661.879 588.79 684.105 571.266 706.752C567.221 711.978 563.626 717.28 561.336 723.508C558.875 730.201 557.616 737.891 560.903 744.554C564.309 751.459 570.89 753.617 577.701 755.792C548.363 773.428 421.291 761.442 383.59 758.149Q298.518 751.348 213.993 739.55C185.605 735.334 156.485 731.428 129.158 722.343C119.636 719.177 109.8 714.892 102.31 708.051C94.0139 700.475 84.3211 681.414 84.1764 670.346C84.0908 663.798 102.155 647.228 107.1 642.241Q160.589 588.294 216.315 536.66C236.202 518.291 256.014 500.085 276.612 482.496Q331.4 436.596 388.793 393.998Q446.186 351.4 505.985 312.251L542.465 288.367C547.61 285.003 553.702 279.612 559.563 277.717C565.079 275.933 583.79 276.816 590.52 276.749L666.85 276.245Z"/>
	<path d="M110.08 679.939C113.923 680.302 118.03 681.981 121.773 683.029Q129.389 685.119 137.089 686.873C153.632 690.742 170.508 693.684 187.265 696.475C244.519 706.012 302.143 711.113 360.036 714.75Q411.339 717.642 462.718 718.311Q481.719 718.383 500.71 717.781C505.665 717.634 521.635 716.242 525.233 717.154C526.56 717.491 526.689 717.921 527.25 719.025C526.868 720.587 526.742 720.772 525.598 721.906C470.134 724.855 414.321 722.94 358.913 719.652C294.307 715.819 229.418 709.906 165.728 698.152C153.268 695.853 140.949 693.349 128.625 690.404C123.553 689.193 117.933 688.186 113.069 686.317C111.172 685.588 109.461 684.954 108.573 683.01C108.803 681.405 109.092 681.16 110.08 679.939Z"/>
	<path d="M443.267 416.203C443.372 416.188 443.476 416.169 443.581 416.159C452.245 415.369 464.235 415.975 471.049 422.088C473.936 424.678 475.54 428.261 475.695 432.122C475.91 437.484 473.384 442.272 469.841 446.134C454.673 462.663 424.803 468.348 403.464 469.361C394.574 469.155 383.573 468.367 376.374 462.47C372.721 459.478 370.132 454.838 369.694 450.117C369.32 446.085 370.699 442.408 373.263 439.327C385.419 424.721 424.256 417.976 443.267 416.203Z"/>
	<path fill="#FEFEFE" d="M444.111 421.201C450.304 420.307 457.8 420.874 463.542 423.474C466.308 424.726 468.986 426.663 470.004 429.648C470.608 431.422 470.637 433.729 469.694 435.4C468.566 437.401 466.421 438.15 464.348 438.83C456.657 441.353 447.685 442.316 439.735 443.963Q418.164 448.267 396.9 453.892C392.138 455.311 387.354 457.43 382.484 458.384C380.8 458.714 379.348 458.696 377.928 457.547C376.205 456.153 375.456 453.668 375.213 451.551C374.796 447.924 375.75 444.598 378.131 441.819C388.544 429.665 428.441 422.512 444.111 421.201Z"/>
	<path d="M356.364 490.224Q357.49 490.194 358.616 490.201C367.713 490.228 377.815 491.475 384.427 498.466C387.718 501.946 389.223 506.459 388.927 511.221C388.523 517.7 385.035 523.537 380.296 527.822C363.915 542.638 335.652 547.302 314.376 546.261C305.001 545.543 293.729 543.492 286.434 537.061C282.764 533.825 280.34 529.159 280.113 524.236C279.902 519.67 281.777 515.606 284.83 512.29C298.608 497.324 336.379 491.18 356.364 490.224Z"/>
	<path fill="#FEFEFE" d="M357.788 495.216C363.3 494.925 369.344 495.471 374.527 497.47C378.752 499.099 381.138 501.205 382.902 505.374C383.743 507.362 384.914 510.56 383.9 512.663C383.371 513.759 380.588 514.326 379.409 514.641C371.769 516.683 363.89 517.994 356.149 519.623Q332.118 524.456 308.307 530.276L292.125 535.4C291.482 535.015 290.856 534.613 290.258 534.16C287.609 532.154 285.697 529.238 285.371 525.888C284.993 522.016 286.435 518.473 288.99 515.604C301.162 501.934 339.431 496.028 357.788 495.216Z"/>
	<path d="M563.551 427.704C564.37 427.62 565.174 427.547 565.997 427.509C575.588 427.066 586.944 427.71 594.327 434.715C597.822 438.032 599.702 442.516 599.71 447.325C599.721 453.899 596.313 460.026 591.735 464.564C576.707 479.463 547.679 484.486 527.421 484.448C517.762 483.942 506.085 483.024 498.175 476.782C494.305 473.728 491.575 469.138 491.01 464.208C490.51 459.847 491.825 455.743 494.557 452.335C506.842 437.007 544.042 429.489 563.551 427.704Z"/>
	<path fill="#FEFEFE" d="M566.773 432.706C572.426 432.24 578.39 432.586 583.753 434.568C588.194 436.209 593.607 439.728 595.446 444.321C595.952 445.583 596.011 446.901 595.319 448.117C594.394 449.742 592.575 450.59 590.889 451.19C583.894 453.676 575.558 454.729 568.282 456.367Q544.752 461.541 521.382 467.393C514.86 469.113 508.547 471.499 501.994 473.162C499.103 470.801 496.694 467.77 496.154 463.96C495.677 460.6 496.994 457.683 499.12 455.15C511.384 440.54 547.835 434.107 566.773 432.706Z"/>
	<path d="M693.798 440.219C704.541 439.674 718.068 440.773 726.435 448.362C730.094 451.681 732.006 455.793 732.141 460.732C732.31 466.864 729.575 472.126 725.378 476.432C710.026 492.182 680.994 496.181 659.866 496.571C649.052 496.583 636.016 495.45 627.324 488.231C623.605 485.143 621.404 481.124 621.132 476.27C620.85 471.225 622.563 466.847 625.942 463.127C640.508 447.093 673.144 441.231 693.798 440.219Z"/>
	<path fill="#FEFEFE" d="M693.576 445.226C700.667 445.038 708.311 445.555 715.074 447.838C718.878 449.122 725.53 452.139 726.981 456.05C727.587 457.685 727.203 459.718 726.345 461.199C725.283 463.031 722.006 463.93 720.056 464.502C712.708 466.656 704.81 467.901 697.304 469.462C682.463 472.549 667.612 475.562 652.936 479.377C645.831 481.157 638.777 483.565 631.829 485.885C629.078 483.578 626.208 480.624 625.993 476.831C625.754 472.613 628.263 468.339 631.026 465.345C643.743 451.566 675.756 445.994 693.576 445.226Z"/>
	<path d="M488.691 502.707Q490.591 502.562 492.497 502.537C501.229 502.478 512.187 504.328 518.545 510.861Q519.119 511.445 519.631 512.083Q520.143 512.722 520.588 513.409Q521.033 514.096 521.406 514.825Q521.779 515.553 522.076 516.316Q522.374 517.078 522.592 517.867Q522.811 518.656 522.949 519.463Q523.087 520.27 523.143 521.086Q523.198 521.903 523.171 522.721C523.001 529.333 519.216 535.243 514.57 539.701C498.221 555.389 469.534 559.812 447.754 559.296C437.627 558.624 426.545 558.008 418.295 551.335C414.431 548.21 411.64 543.634 411.157 538.634C410.713 534.044 412.323 530.019 415.323 526.588C430.709 508.992 466.216 504.331 488.691 502.707Z"/>
	<path fill="#FEFEFE" d="M488.285 507.71C495.012 507.286 502.536 507.662 508.825 510.307C512.38 511.803 515.727 514.24 517.174 517.94C517.966 519.963 518.379 522.858 517.558 524.902C516.271 525.874 514.894 526.356 513.331 526.74C509.277 527.737 505.092 528.237 501.017 529.154C481.116 533.633 461.151 537.903 441.406 543.044Q432.498 545.774 423.541 548.335C422.311 547.703 421.021 546.949 419.96 546.058C417.858 544.291 416.271 541.762 416.065 538.988C415.803 535.459 417.74 531.79 419.986 529.197C433.192 513.949 468.837 509.047 488.285 507.71Z"/>
	<path d="M272.289 567.709C282.313 566.475 300.497 566.819 308.59 573.428Q309.221 573.933 309.796 574.5Q310.371 575.067 310.885 575.691Q311.398 576.314 311.845 576.987Q312.291 577.661 312.665 578.376Q313.04 579.092 313.339 579.843Q313.637 580.593 313.857 581.371Q314.076 582.148 314.214 582.944Q314.352 583.74 314.407 584.546C314.897 590.95 311.71 596.918 307.568 601.58C293.599 617.304 267.267 623.256 247.125 624.49C235.127 624.753 219.874 624.864 209.804 617.274C205.919 614.346 203.433 610.303 202.923 605.437C202.312 599.61 204.345 594.259 208.132 589.882C221.891 573.983 252.415 569.238 272.289 567.709Z"/>
	<path fill="#FEFEFE" d="M280.245 572.715C287.133 572.413 296.535 572.292 302.719 575.613C305.568 577.143 307.694 579.537 308.602 582.669C309.137 584.515 309.37 587.215 308.226 588.883C307.132 590.477 303.761 591.442 301.981 591.979C292.645 594.795 282.779 596.385 273.235 598.386C260.058 601.148 246.925 604.159 233.784 607.088C228.81 608.123 214.623 613.231 210.466 611.119C208.828 608.976 208.123 606.617 207.942 603.929C207.659 599.715 209.96 595.484 212.741 592.473C227.386 576.615 259.908 573.743 280.245 572.715Z"/>
	<path d="M405.02 584.214C405.16 584.203 405.299 584.19 405.44 584.183C416.067 583.665 429.444 583.442 437.822 591.096C441.748 594.682 443.751 599.491 443.755 604.789C443.762 611.718 440.376 617.93 435.57 622.73C420.483 637.799 388.816 643.439 368.367 643.503C357.807 643.234 344.739 641.653 336.427 634.426C332.351 630.883 330.017 625.883 329.69 620.504C329.381 615.424 331.625 610.895 334.904 607.159C349.256 590.81 383.855 585.493 405.02 584.214Z"/>
	<path fill="#FEFEFE" d="M405.257 589.206Q407.832 589.003 410.415 588.98C418.62 588.85 428.526 589.006 434.707 595.288C438.373 599.014 439.023 603.072 439.073 608.04C428.158 611.565 416.364 613.326 405.137 615.621Q384.664 619.826 364.389 624.904C356.437 626.837 348.481 630.104 340.361 631.099C337.355 628.538 335.117 625.346 334.874 621.28C334.631 617.218 336.422 613.373 339.084 610.395C352.131 595.797 386.144 590.469 405.257 589.206Z"/>
	<path d="M615.833 516.212C627.596 514.911 644.05 515.869 653.839 523.389C658.026 526.605 660.743 531.177 661.198 536.473C661.774 543.178 658.51 549.414 654.155 554.28C638.428 571.851 608.713 576.72 586.124 577.98C573.024 578.741 556.39 578.181 545.839 569.17C541.546 565.504 539.142 560.751 538.734 555.123C538.36 549.967 539.838 545.533 543.267 541.662C559.068 523.823 592.802 517.845 615.833 516.212Z"/>
	<path fill="#FEFEFE" d="M616.651 521.206C617.259 521.136 617.854 521.101 618.466 521.085C629.061 520.793 644.325 520.583 652.415 528.656C656.141 532.375 656.539 535.969 656.468 540.932C646.636 544.589 635.377 545.956 625.067 547.86C609.233 550.784 593.462 553.635 577.804 557.427C569.355 559.338 560.884 562.227 552.4 563.743C550.31 564.117 548.814 564.182 547.028 562.821C545.135 561.38 544.12 558.437 543.798 556.178C543.191 551.913 544.999 547.745 547.685 544.5C560.789 528.67 596.553 522.694 616.651 521.206Z"/>
	<path d="M537.363 598.711C537.454 598.696 537.544 598.675 537.636 598.667C550.593 597.621 569.334 597.859 580.037 606.458C584.218 609.818 586.879 614.625 587.257 619.996C587.719 626.58 584.885 632.868 580.592 637.727C566.199 654.017 538.327 659.504 517.624 660.807C504.559 661.747 485.496 661.457 474.75 652.885C470.368 649.388 467.735 644.521 467.121 638.956C466.488 633.213 467.952 627.222 471.732 622.769C484.636 607.565 518.396 600.285 537.363 598.711Z"/>
	<path fill="#FEFEFE" d="M537.471 603.706C547.573 602.584 560.708 603.077 570.293 606.594C575.039 608.336 579.181 611.236 581.204 616.015C582.144 618.234 582.924 621.043 582.009 623.373C578.479 625.832 520.291 637.242 509.253 639.852C500.267 642.313 490.905 645.695 481.728 647.154C479.517 647.505 477.037 647.92 475.195 646.397C472.923 644.517 471.767 639.747 471.56 636.961C471.262 632.955 473.14 628.985 475.705 626.019C487.88 611.943 519.885 605.283 537.471 603.706Z"/>
	<path d="M577.839 296.25Q607.05 295.527 636.269 295.861Q665.487 296.195 694.674 297.585Q723.861 298.975 752.979 301.42Q782.097 303.864 811.107 307.36C828.234 309.466 847.506 310.593 864.041 315.373C866.669 316.133 870.168 317.056 871.545 319.539C870.949 322.205 867.349 322.877 866.448 325.669C867.026 328.402 868.802 330.865 870.202 333.257C860.947 343.345 850.958 352.568 841.053 362L809.629 392.047C803.347 397.95 794.363 407.89 787.545 412.476Q767.844 410.666 748.122 409.101L630.668 399.439Q576.491 395.638 522.274 392.459L474.595 389.886C467.099 389.47 459.11 389.54 451.696 388.421C449.924 388.153 448.465 387.74 446.912 386.853C446.286 385.665 446.33 384.8 446.524 383.45C447.032 379.923 448.734 375.971 450.991 373.213C454.774 368.589 459.635 364.583 463.997 360.492Q478.462 346.953 493.277 333.799L517.408 312.135C522.767 307.25 527.918 302.112 533.567 297.559L577.839 296.25Z"/>
	<path fill="#FEFEFE" d="M586.271 300.753Q616.043 300.16 645.817 300.676Q675.591 301.191 705.325 302.813Q735.06 304.436 764.713 307.164Q794.366 309.891 823.897 313.72C832.895 314.865 856.873 317.035 863.763 321.164C863.901 322.231 863.945 322.956 863.679 324.002C851.253 320.44 838.841 318.946 826.062 317.322Q806.872 314.829 787.617 312.906Q734.356 307.56 680.879 305.214Q627.402 302.869 573.878 303.533C567.528 303.568 544.305 302.428 539.717 304.257C536.469 305.552 518.773 322.424 514.195 326.394C497.618 340.767 481.023 355.406 463.881 369.096C461.33 371.134 455.919 374.386 455.143 377.578C454.794 379.011 455.322 379.878 456.031 381.028C460.882 383.374 508.147 384.33 517.262 384.568Q622.997 389.516 728.429 398.926C749.154 400.745 769.96 402.024 790.648 404.209C789.385 405.477 788.049 406.775 786.208 407.038C779.806 407.952 772.188 406.272 765.695 405.643Q753.263 404.441 740.804 403.564L580.024 391.162C568.433 390.349 454.026 384.714 451.743 383.089C451.733 382.411 451.699 382.365 451.88 381.593C452.536 378.806 455.011 375.677 456.965 373.595C462.834 367.34 469.508 361.651 475.855 355.882L509.979 325.114C517.312 318.459 527.767 307.11 535.365 302.153Q560.803 300.892 586.271 300.753Z"/>
	<path fill="#FEFEFE" d="M544.546 312.477C548.403 311.731 553.293 312.27 557.293 312.278Q572.154 312.306 587.013 312.505Q673.723 313.759 760.235 319.74C780.483 321.085 800.535 323.094 820.713 325.16C832.082 326.324 843.898 326.946 855.093 329.205C842.31 341.004 829.87 353.213 817.212 365.152C807.525 374.288 797.391 382.993 788.457 392.885L784.624 392.614C772.039 392.152 759.351 390.556 746.756 389.741Q693.371 386.61 640.053 382.475Q556.133 376.79 472.07 373.931C481.784 365.464 492.129 357.719 501.788 349.187Q515.901 336.506 530.329 324.184C534.949 320.234 539.512 315.893 544.546 312.477Z"/>
	<path d="M617.493 333.168C620.686 333.139 623.474 333.497 626.104 335.469C629.161 337.76 630.91 341.453 631.294 345.202C631.573 347.928 631.272 350.268 629.475 352.388C628.237 352.93 628.082 353.017 626.762 352.799C625.133 350.282 626.669 345.455 625.536 342.325C624.968 340.755 623.919 339.576 622.384 338.901C618.732 337.295 614.168 338.579 610.714 340.103L610.077 340.39C607.608 341.993 604.606 343.679 602.726 345.95C601.122 347.888 599.782 350.437 597.925 352.111C596.946 352.995 596.238 353.145 594.962 353.155C594.309 352.489 594.268 352.699 594.208 351.869C594.023 349.32 595.773 346.585 597.279 344.668C602.38 338.171 609.328 334.2 617.493 333.168Z"/>
	<path d="M693.858 336.585C696.226 336.285 698.867 336.102 701.189 336.728C704.846 337.714 707.848 340.359 709.581 343.688C711.341 347.069 712.404 352.184 711.028 355.868C710.38 357.603 709.44 358.45 707.758 359.169C704.979 358.067 707.423 347.426 703.249 343.422C701.178 341.435 698.781 341.359 696.072 341.369L695.344 341.378C689.748 343.059 683.848 346.607 680.615 351.599C679.678 353.046 678.949 355.703 677.597 356.774C676.466 357.671 676.021 357.464 674.703 357.256L673.999 356.261C673.846 354.274 674.215 353.093 675.17 351.368C679.307 343.9 685.726 338.95 693.858 336.585Z"/>
</svg>
