<svg width="1024" height="1024" viewBox="0 0 1024 1024" fill="none" xmlns="http://www.w3.org/2000/svg">
<g clip-path="url(#clip0_2049_322)">
<path d="M0 0H1024V1024H0V0Z" fill="#FEFEFE"/>
<path d="M120.564 519.597L121.571 519.673C122.447 520.65 122.255 520.087 122.206 521.34C119.744 524.127 115.572 526.006 112.349 527.828C101.835 533.771 89.7155 540.911 77.4579 541.816L76.083 540.899C75.9304 540.1 75.7493 540.047 76.211 539.3C80.6066 532.195 111.445 521.775 120.564 519.597Z" fill="#2A2A2A"/>
<path d="M39.8275 378.174C41.2086 378.281 42.5831 378.445 43.9509 378.665C51.3612 379.892 79.9699 389.169 84.3951 395.354C84.3258 396.632 84.1629 396.643 83.2854 397.604C81.8012 397.581 80.3237 397.503 78.8584 397.254C71.02 395.919 42.3467 387.268 38.4077 380.655C37.9918 379.957 38.2741 379.668 38.4668 378.948L39.8275 378.174Z" fill="#2A2A2A"/>
<path d="M82.8647 456.214C85.0743 456.03 87.7936 455.584 89.6589 456.986L89.5635 457.835C82.3199 464.151 44.2212 469.651 33.8746 470.14C31.7542 470.202 29.1449 470.624 27.4738 469.051L27.5138 468.119C34.2317 460.949 72.031 456.959 82.8647 456.214Z" fill="#2A2A2A"/>
<path d="M69.5722 287.223C69.725 287.232 69.8784 287.235 70.0307 287.25C74.9313 287.747 90.3219 304.354 94.2177 308.778C98.7474 313.923 109.602 325.646 109.189 332.102C105.252 332.128 101.732 328.183 98.9662 325.643C90.6992 318.052 70.0335 298.408 69.5722 287.223Z" fill="#2A2A2A"/>
<path d="M958.007 440.25C966.21 439.752 993.822 438.504 999.788 441.468L999.982 442.233C995.188 446.219 955.151 446.998 946.578 447.341C938.915 447.499 931.252 447.546 923.588 447.482C918.864 447.403 906.916 447.864 903.577 444.412C907.399 441.396 950.058 440.492 958.007 440.25Z" fill="#2A2A2A"/>
<path d="M879.535 514.112C890.12 513.876 908.294 520.171 919.46 522.582C931.542 525.191 943.909 526.935 955.898 529.867C957.883 530.352 959.852 530.809 961.53 532.025L961.654 533.171L960.379 533.747L959.915 533.786C938.484 535.42 909.165 529.339 889.098 521.957C886.101 520.854 881.244 519.429 878.892 517.239C878.069 516.472 878.183 516.23 878.197 515.179L879.535 514.112Z" fill="#2A2A2A"/>
<path d="M979.482 338.075C980.858 338.047 981.263 337.879 982.387 338.636L982.13 339.554C972.093 349.375 897.044 380.192 880.618 382.869C879.691 382.947 878.92 382.855 878.001 382.747L877.592 381.996C877.672 381.849 877.736 381.692 877.832 381.554C882.276 375.201 968.993 340.649 979.482 338.075Z" fill="#2A2A2A"/>
<path d="M833.794 573.38C835.659 573.882 837.063 574.729 838.615 575.861C849.995 584.155 860.674 593.409 871.984 601.8C883.992 610.708 896.708 618.765 908.512 627.932C913.107 631.502 919.453 636.13 922.864 640.826C923.91 642.267 923.924 643.234 923.676 644.942C923.395 644.857 923.111 644.779 922.832 644.687C917.063 642.784 906.672 634.943 901.311 631.321C887.158 621.76 839.508 590.002 833.529 576.202C832.965 574.902 833.288 574.634 833.794 573.38Z" fill="#2A2A2A"/>
<path d="M149.508 586.432L150.245 586.916C150.533 587.631 150.801 587.833 150.51 588.622C148.724 593.473 92.6807 635.735 84.364 641.463C77.6677 646.075 70.6754 650.612 63.2549 653.956C62.5383 653.025 62.4776 652.941 62.409 651.773C67.2604 640.784 136.074 592.315 149.508 586.432Z" fill="#2A2A2A"/>
<path d="M916.214 222.851C917.285 222.929 917.277 222.96 918.065 223.699C918.109 224.312 918.142 224.324 918.007 225.034C916.215 234.417 853.954 295.404 843.792 301.592C842.59 301.577 842.716 301.815 841.792 300.9C841.782 300.267 841.749 300.248 841.93 299.527C844.426 289.611 905.171 230.399 916.214 222.851Z" fill="#2A2A2A"/>
<path d="M630.886 99.2492C655.95 98.8872 726.424 95.7969 744.343 110.062C748.008 112.979 748.484 118.053 748.959 122.484C750.949 141.068 751.809 159.898 753.111 178.544L760.415 286.89L780.765 618.588L789.862 775.181C791.117 795.068 792.212 814.965 793.147 834.87C793.669 844.624 794.947 854.781 794.689 864.529C794.538 870.194 792.95 875.584 789.246 879.969C785.864 883.972 781.932 886.096 776.84 887.165C756.981 891.336 736.065 891.715 715.875 893.258L629.359 900.14L316.599 922.103C301.373 923.87 285.47 924.844 270.15 925.603C260.924 926.06 251.066 925.806 243.904 919.032C236.094 911.644 234.1 891.796 232.599 881.249C226.795 840.476 223.707 799.218 219.264 758.277L185.878 428.199L166.601 245.557L160.741 192.857C159.555 182.821 157.565 172.326 157.372 162.234C157.251 155.955 158.821 150.409 163.255 145.831C168.604 140.308 176.251 136.781 183.375 134.212C211.649 124.015 242.867 120.899 272.575 117.643C343.187 109.906 414.391 108.426 485.317 105.485C533.862 103.472 582.293 100.193 630.886 99.2492Z" fill="#2A2A2A"/>
<path d="M519.761 119.707C525.951 119.172 539.503 118.214 544.929 120.896C546.13 121.49 546.666 122.153 547.12 123.414C547.015 124.844 546.735 125.475 545.94 126.662C544.414 127.611 543.046 127.869 541.258 128.01C525.607 129.249 509.622 129.252 493.909 130.088L396.25 135.49C391.064 135.614 378.097 137.373 373.756 136.307C372.116 135.905 370.196 134.773 369.49 133.167C369.061 132.192 369.154 131.128 369.759 130.247C371.024 128.401 373.97 127.777 376.022 127.528C383.058 126.673 390.58 126.873 397.7 126.56L444.677 124.58C469.734 123.502 494.708 120.96 519.761 119.707Z" fill="#FEFEFE"/>
<path d="M666.236 141.75C683.039 141.007 698.134 141.643 711.293 153.556C718.45 160.036 722.723 167.958 724.178 177.51C725.458 185.908 725.478 194.684 725.875 203.163C726.435 215.548 727.071 227.929 727.783 240.306L735.146 392.66L758.058 881.687C682.082 889.236 605.678 893.701 529.511 898.898L279.967 917.291C275.044 917.66 270.119 917.999 265.192 918.309C258.295 869.995 253.563 821.481 248.189 772.986L218.462 489.992L202.068 323.963C199.083 297.692 196.323 271.398 193.787 245.08C192.416 231.902 190.347 218.552 189.692 205.336C189.139 194.173 192.149 184.756 199.791 176.47C205.989 169.75 215.103 164.963 224.079 163.325C236.129 161.125 255.613 161.172 268.288 160.534C298.525 158.899 328.77 157.433 359.023 156.135C461.383 150.383 563.787 145.588 666.236 141.75Z" fill="#FEFEFE"/>
<path d="M704 654.789C705.919 654.631 707.943 654.371 709.865 654.426C711.432 654.47 712.903 655.282 713.889 656.49C714.821 657.63 715.222 659.037 715.41 660.472C715.971 664.773 715.706 669.221 716.211 673.554C719.582 702.453 722.179 731.394 725.038 760.346L729.265 801.954C730.016 809.493 731.894 818.695 730.764 826.136C730.09 830.569 725.944 834.841 722.386 837.247C716.55 841.194 709.317 843.021 702.523 844.479C677.828 849.781 651.675 851.041 626.551 853.31L587.595 856.56C579.007 857.247 570.327 858.2 561.71 858.239C554.239 858.274 546.951 857.735 539.626 856.251C536.703 855.193 533.241 854.128 530.836 852.124C528.868 850.485 528.28 848.603 527.793 846.158C526.395 839.137 526.003 831.682 525.256 824.552L521.171 783.571C517.315 746.182 513.74 708.766 510.445 671.323C513.056 668.885 515.924 667.37 519.431 666.643C527.789 664.911 536.606 664.522 545.109 663.929C558.404 663.065 571.703 662.27 585.006 661.543C624.658 659.06 664.323 656.808 704 654.789Z" fill="#2A2A2A"/>
<path d="M700.236 661.712L706.727 661.483L717.764 771.753C719.021 784.081 720.529 796.359 721.511 808.717C721.916 813.821 722.677 819.37 722.272 824.478C722.059 827.155 720.484 829.567 718.448 831.253C713.82 835.085 706.93 836.792 701.174 838.013C675.791 843.396 648.827 844.361 622.998 846.68C596.743 849.036 569.465 853.614 543.143 851.284C541.305 850.816 538.804 850.317 537.338 849.044C535.743 847.661 535.524 844.57 535.252 842.533C533.055 826.123 532.446 809.263 530.697 792.758L523.289 717.377C521.855 702.559 520.06 687.722 519.02 672.873C541.453 669.961 564.536 669.482 587.132 668.185L700.236 661.712Z" fill="#FEFEFE"/>
<path d="M541.46 695.109C543.034 695.102 543.915 694.896 545.288 695.708C547.85 708.598 548.287 722.565 549.551 735.672C551.31 753.913 553.695 772.356 554.622 790.644C561.021 789.91 567.346 789.053 573.789 788.77C575.639 800.189 574.985 812.004 576.661 823.489C580.481 823.452 584.334 823.096 588.149 822.865C587.264 817.787 583.223 765.898 584.379 763.58C591.287 761.346 600.68 761.71 608.02 761.194C610.091 781.027 610.042 801.127 612.546 820.961L626.141 820.219C624.282 810.56 624.177 800.574 623.67 790.771C622.969 777.217 622.184 763.588 620.405 750.127C618.953 750.379 617.431 750.704 615.96 750.786C613.561 750.92 611.148 749.355 609.493 747.76C609.155 746.79 608.76 746.217 609.337 745.233C610.06 744.002 611.279 743.156 612.594 742.68C617.309 740.975 630.981 738.152 635.445 740.641C636.512 741.236 637.33 742.026 637.568 743.273C637.779 744.377 637.525 745.661 636.809 746.541C634.596 749.262 629.425 749.058 626.245 749.358C626.552 757.804 627.549 766.288 628.228 774.714C629.328 789.691 630.628 804.65 632.128 819.592C636.081 819.499 640.032 819.339 643.98 819.112C642.445 800.922 641.842 782.661 640.68 764.444C639.896 752.148 638.363 739.822 638.035 727.51C637.972 725.12 637.873 722.523 638.675 720.245C640.223 719.11 642.083 718.836 643.946 718.606C647.173 718.207 656.431 716.363 658.773 718.789C660.359 720.432 660.348 723.946 660.559 726.12C661.813 734.7 661.915 743.686 662.586 752.356C663.515 764.365 664.816 776.345 665.862 788.346C666.708 798.048 667.247 807.858 668.55 817.509C671.892 817.384 675.24 817.116 678.579 816.91C677.286 801.88 675.576 786.886 674.366 771.85C673.25 756.487 672.294 741.114 671.499 725.731C671.011 717.465 669.015 705.255 670.287 697.426C671.109 696.779 671.57 696.618 672.648 696.483C675.304 696.15 678.106 696.559 680.79 696.451C684.075 696.319 687.402 695.097 690.698 695.296C693.046 695.438 692.887 696.677 693.31 698.625C695.385 708.201 696.362 718.86 697.273 728.663C697.825 734.611 703.344 813.849 704.138 814.659C705.331 815.878 707.407 815.739 708.781 817.445C708.789 818.686 708.633 818.56 707.9 819.471C703.596 821.688 577.709 830.303 562.853 830.511C559.11 830.564 554.436 830.424 551.67 827.522C550.083 825.857 549.517 823.58 549.191 821.37C547.956 812.999 548.137 804.022 547.505 795.548C546.436 781.211 544.848 766.879 543.637 752.546C542.562 739.818 541.097 727.127 539.938 714.406C539.399 708.495 538.639 702.481 538.615 696.545C539.438 695.392 540.147 695.477 541.46 695.109Z" fill="#2A2A2A"/>
<path d="M561.914 797.798C564.221 797.592 566.551 797.522 568.865 797.396C569.763 806.162 570.131 815.034 570.713 823.83L566.125 823.991L559.283 824.075L556.51 798.132L561.914 797.798Z" fill="#FEFEFE"/>
<path d="M600.87 769.706C601.187 769.594 601.871 769.61 602.216 769.588C602.717 770.425 602.756 770.229 602.813 771C604.055 787.808 605.731 804.69 606.628 821.51C603.32 821.91 599.948 822.053 596.623 822.296C595.403 822.343 595.266 822.527 594.19 821.841C593.324 815.534 593.424 809.025 592.903 802.669C592.036 792.111 590.554 781.357 590.461 770.768C593.96 770.565 597.397 770.17 600.87 769.706Z" fill="#FEFEFE"/>
<path d="M651.734 726.729C652.721 726.532 653.227 726.529 654.192 726.826C654.771 727.944 661.137 808.01 662.025 817.933C659.64 817.957 657.259 818.096 654.877 818.212C653.312 818.37 651.863 818.669 650.367 818.045C648.659 812.241 648.417 795.197 647.941 788.376L643.45 727.544C646.166 727.083 648.989 726.967 651.734 726.729Z" fill="#FEFEFE"/>
<path d="M676.095 702.732C679.995 702.48 683.928 702.422 687.835 702.271C689.75 712.765 697.571 814.226 696.868 815.633C692.955 816.054 688.995 816.256 685.069 816.557C683.966 800.145 681.968 783.784 680.565 767.393C678.747 745.862 677.257 724.308 676.095 702.732Z" fill="#FEFEFE"/>
<path d="M677.945 420.273C683.52 420.052 695.576 418.302 700.074 421.765C701.382 424.368 701.43 427.936 701.69 430.803C705.046 467.807 707.059 504.987 709.892 542.042C710.682 552.986 711.582 563.921 712.592 574.847C713.25 581.768 714.518 589.124 714.293 596.071C714.144 600.685 710.646 605.093 707.331 608.004C701.498 613.126 693.41 615.016 686.005 616.507C672.743 619.178 658.971 620.226 645.5 621.328L594.692 625.169L557.96 628.053C549.15 628.7 540.208 629.525 531.375 629.025C528.579 628.991 525.536 628.51 522.815 627.875C517.788 626.702 512.689 624.426 509.951 619.811C508.109 616.706 507.64 613.206 507.318 609.682C505.372 588.441 504.741 566.892 503.515 545.585L497.518 455.618C497.206 451.185 494.904 434.879 495.664 431.759C504.466 427.077 659.215 420.516 677.945 420.273Z" fill="#2A2A2A"/>
<path d="M661.981 545.768C662.496 546.272 662.342 545.975 662.441 546.798C662.945 551.017 661.074 566.376 658.537 569.538C657.283 570.199 656.602 570.348 655.185 570.324C654.063 562.519 653.389 554.537 652.94 546.663L661.981 545.768Z" fill="#FEFEFE"/>
<path d="M560.521 557.736L561.283 557.67C562.877 559.396 568.633 578.932 569.978 582.938C567.264 583.081 564.538 583.073 561.82 583.11C557.728 575.452 554.859 566.664 551.507 558.626C554.513 558.41 557.522 558.041 560.521 557.736Z" fill="#FEFEFE"/>
<path d="M644.327 547.715C645.264 547.539 645.808 547.565 646.738 547.66C647.808 549.172 649.579 567.837 650.185 571.231L641.05 571.736L640.546 571.624C638.159 568.277 635.878 553.36 634.895 548.656C638.042 548.411 641.187 548.037 644.327 547.715Z" fill="#FEFEFE"/>
<path d="M614.97 517.789L621.991 517.425C623.503 526.497 626.195 535.343 627.996 544.363L623.61 544.861L616.644 545.545L610.424 518.11L614.97 517.789Z" fill="#FEFEFE"/>
<path d="M661.733 514.299C663.547 514.107 665.451 513.792 667.21 514.388C665.755 523.369 664.468 532.375 663.348 541.404L657.126 541.98C655.628 542.096 654.389 542.496 653.15 541.581C651.326 533.327 651.763 523.565 651.268 515.085C654.751 514.744 658.239 514.482 661.733 514.299Z" fill="#FEFEFE"/>
<path d="M652.822 581.699C655.529 581.516 658.658 581.401 661.198 582.494C663.268 583.385 664.985 584.96 665.802 587.088C666.645 589.284 666.42 591.733 665.378 593.821C663.488 597.608 660.056 599.179 656.232 600.452C652.008 600.808 648.165 601.119 644.582 598.332C642.756 596.911 641.564 594.865 641.417 592.538C641.167 588.565 643.443 585.487 646.016 582.734C648.263 582.275 650.55 582.01 652.822 581.699Z" fill="#FEFEFE"/>
<path d="M653.612 584.099C654.805 584.271 656.098 584.402 657.155 585.024C658.5 585.815 659.582 587.282 659.953 588.791C660.374 590.503 659.89 592.359 658.911 593.796C657.413 595.995 655.405 596.469 652.914 596.898C651.711 596.763 650.385 596.672 649.273 596.164C648.116 595.635 646.96 594.494 646.589 593.252C646.054 591.463 646.342 589.786 647.29 588.208C648.802 585.691 650.85 584.739 653.612 584.099Z" fill="#2A2A2A"/>
<path d="M652.333 588.198C653.934 588.53 654.314 588.457 655.464 589.689C655.651 591.049 655.238 591.726 654.684 592.931C653.308 592.754 652.395 592.663 651.256 591.779C651.136 590.233 651.662 589.573 652.333 588.198Z" fill="#FEFEFE"/>
<path d="M639.947 516.217C640.811 516.12 641.656 516.129 642.526 516.119C644.603 518.098 646.416 538.753 646.956 542.903C642.68 543.191 638.41 543.544 634.145 543.963C632.757 541.709 628.147 521.993 626.519 517.11C630.958 516.564 635.481 516.459 639.947 516.217Z" fill="#FEFEFE"/>
<path d="M583.355 554.726C584.161 554.533 584.313 554.595 585.079 554.816C586.971 557.691 590.103 571.021 592.032 575.744C592.869 577.794 593.961 578.861 595.592 580.302C596.338 580.961 596.158 580.557 596.25 581.42C595.144 581.227 595.446 581.42 594.666 580.848C590.958 578.124 588.106 577.026 583.493 576.934L582.784 576.926C579.571 577.663 577.257 578.768 574.526 580.631C572.117 572.658 569.793 564.662 567.552 556.641C572.813 556.195 578.111 555.373 583.355 554.726Z" fill="#FEFEFE"/>
<path d="M541.603 521.789C545.073 521.432 548.642 521.438 552.131 521.302C554.016 531.723 557.811 542.025 560.558 552.275C558.675 552.661 556.769 552.965 554.876 553.306C553.153 553.465 551.444 553.758 549.733 554.019C544.518 543.796 540.509 532.755 535.826 522.262L541.603 521.789Z" fill="#FEFEFE"/>
<path d="M584.24 582.064C586.649 581.889 588.689 581.949 590.847 583.172C593.836 584.866 595.783 587.6 596.584 590.929C597.428 594.438 596.849 598.082 594.802 601.071C592.394 604.587 589.106 606.062 585.058 606.908C583.162 606.918 581.349 606.847 579.542 606.207C576.67 605.189 574.396 603.196 573.227 600.359C571.962 597.287 572.178 593.555 573.574 590.566C575.737 585.935 579.57 583.642 584.24 582.064Z" fill="#FEFEFE"/>
<path d="M584.313 586.536C585.534 586.615 586.767 586.766 587.928 587.183C588.121 587.254 588.309 587.334 588.494 587.425C588.678 587.515 588.857 587.614 589.032 587.723C589.206 587.832 589.374 587.949 589.536 588.075C589.699 588.201 589.854 588.335 590.003 588.477C590.151 588.618 590.292 588.767 590.425 588.924C590.558 589.08 590.683 589.242 590.8 589.411C590.917 589.58 591.024 589.755 591.123 589.935C591.222 590.115 591.311 590.3 591.391 590.489C592.227 592.496 591.866 594.791 590.945 596.703C589.51 599.683 587.41 600.725 584.43 601.847C583.183 601.753 581.91 601.684 580.74 601.196C579.023 600.48 577.595 598.872 577.012 597.115C576.334 595.074 576.742 592.834 577.801 590.997C579.343 588.32 581.458 587.373 584.313 586.536Z" fill="#2A2A2A"/>
<path d="M582.386 590.95C583.149 590.908 584.014 590.817 584.769 590.943C586.064 591.158 586.564 591.766 587.282 592.773C587.384 594.453 586.924 595.216 586.097 596.592C585.346 596.638 584.479 596.734 583.738 596.6C582.414 596.36 581.955 595.69 581.287 594.628C581.218 593.047 581.641 592.273 582.386 590.95Z" fill="#FEFEFE"/>
<path d="M572.634 520.214C573.912 520.047 574.629 519.974 575.89 520.375C578.82 526.867 581.873 541.656 583.946 549.313C578.678 549.734 573.366 550.58 568.117 551.238C567.799 551.329 567.03 551.263 566.686 551.261C564.54 548.008 559.022 526.817 557.218 521.043C562.355 520.73 567.493 520.453 572.634 520.214Z" fill="#FEFEFE"/>
<path d="M609.362 551.72L611.267 551.531C613.6 552.915 619.207 575.348 620.442 579.668C614.514 580.115 608.602 580.719 602.706 581.482L600.21 581.473C597.672 579.807 592.388 558.503 591.065 553.893C597.158 553.113 603.257 552.389 609.362 551.72Z" fill="#FEFEFE"/>
<path d="M598.031 518.708C600.027 518.459 602.133 518.507 604.148 518.429C606.563 527.705 608.826 537.018 610.937 546.368L594.25 548.058C592.693 548.329 591.319 548.698 589.77 548.192C587.137 542.82 583.507 526.743 581.287 519.768C586.874 519.513 592.456 519.159 598.031 518.708Z" fill="#FEFEFE"/>
<path d="M681.514 459.091C686.056 458.673 690.791 458.885 695.358 458.836C695.476 459.789 695.61 460.752 695.678 461.711C695.813 463.586 695.581 464.22 694.361 465.628C691.055 467.024 686.511 463.694 683.207 462.833C681.852 462.479 680.173 462.432 678.987 463.283C675.557 465.743 669.818 502.749 668.677 509.164C627.68 512.787 586.457 514.571 545.378 517.124C542.093 517.455 533.397 518.724 530.691 518.295C529.348 518.082 528.893 517.711 528.086 516.667C528.021 515.131 528.05 514.959 528.823 513.634C530.028 512.837 531.043 512.434 532.487 512.248C535.157 511.903 537.964 512.116 540.662 511.975L561.504 510.695C585.672 509.017 609.852 507.535 634.043 506.248C644.63 505.689 655.747 505.917 666.229 504.428C668.422 495.195 671.826 467.782 675.55 461.792C676.757 459.851 679.445 459.561 681.514 459.091Z" fill="#FEFEFE"/>
<path d="M682.371 426.718C685.649 426.458 689.002 426.513 692.293 426.441C692.599 435.766 693.543 445.338 694.647 454.602C687.853 453.912 679.093 452.75 673.135 456.956C667.911 460.645 663.353 492.861 662.222 500.337L572.471 505.746L539.833 507.805C534.544 508.145 529.034 508.159 523.798 508.876C522.369 509.072 521.134 509.533 520.071 510.53C518.2 512.287 517.121 514.914 517.191 517.48C517.242 519.324 517.887 520.904 519.309 522.13C522.28 524.69 527.421 523.815 530.965 523.443C536.637 534.042 554.085 582.581 558.32 586.356C560.24 588.068 566.752 587.011 569.421 586.931C567.682 590.694 566.439 594.624 567.241 598.802C568.05 603.015 570.902 606.418 574.511 608.607C578.886 611.261 584.092 612.093 589.037 610.72C593.61 609.449 597.784 606.507 600.028 602.261C602.889 596.847 601.637 591.606 599.994 586.094L639.458 583.189C637.897 585.779 636.632 588.42 636.382 591.472C636.099 594.915 637.094 598.006 639.459 600.549C642.416 603.729 646.808 605.236 651.069 605.415C656.77 605.654 663.211 603.788 667.438 599.839C670.239 597.223 671.792 593.762 671.747 589.92C671.705 586.337 670.469 583.208 667.811 580.751C666.029 579.103 663.718 577.883 661.318 577.473C653.443 576.13 635.113 578.616 626.36 579.153C623.152 569.858 620.771 560.21 618.19 550.723C621.853 550.438 625.446 550.047 629.074 549.473C630.988 558.695 633.449 567.797 635.808 576.913C642.176 576.014 658.658 576.325 663.282 572.344C666.926 569.205 668.78 540.711 669.427 534.437C672.773 512.072 677.529 489.986 681.512 467.733C686.364 469.251 691.192 469.982 696.233 470.551C699.292 496.253 700.397 522.355 702.295 548.166C702.942 557.29 703.644 566.41 704.4 575.525C704.896 581.304 705.748 587.24 705.707 593.031C705.688 595.765 705.599 598.34 704.073 600.703C700.676 605.963 694.336 608.24 688.463 609.409C681.169 610.86 673.488 611.244 666.081 611.926C648.734 613.525 631.34 614.494 613.989 616.034C598.688 617.391 583.368 618.713 568.09 620.303C556.351 621.524 544.382 623.334 532.572 623.281C528.413 623.262 521.875 622.735 518.512 620.165C516.885 618.922 516.676 617.411 516.423 615.496C515.65 609.655 515.728 603.673 515.429 597.792C514.918 587.774 514.222 577.76 513.596 567.749L508.715 495.201C507.478 475.75 506.632 456.239 504.636 436.845C526.531 434.711 548.726 434.298 570.691 433.048C607.898 430.595 645.125 428.485 682.371 426.718Z" fill="#FEFEFE"/>
<path d="M447.128 431.709C453.488 430.969 457.555 432.775 463.124 435.557C465.034 448.172 465.59 461.046 466.894 473.742C470.303 506.594 473.476 539.469 476.415 572.367C477.215 581.173 480.591 605.909 479.092 613.188C478.206 617.489 474.802 620.927 471.325 623.331C464.502 628.048 455.242 630.136 447.236 631.674C425.404 635.869 402.445 636.705 380.295 638.488L343.652 641.463C325.824 642.906 307.378 644.785 289.695 641.3C285.016 640.006 280.086 638.442 276.164 635.496C271.319 631.858 270.534 628.082 269.76 622.411C268.415 612.562 267.827 602.53 266.931 592.627L261.937 537.447C260.915 526.168 252.712 452.059 254.137 447.009C254.262 446.567 254.653 446.014 254.949 445.698C256.181 444.388 258.137 443.816 259.852 443.51C264.804 442.623 270.237 442.628 275.276 442.246L306.262 439.886C353.153 436.382 400.194 434.747 447.128 431.709Z" fill="#2A2A2A"/>
<path d="M447.294 439.25C449.995 438.93 452.788 438.959 455.507 438.858C457.786 453.636 458.232 469.091 459.656 483.994L465.864 548.887C466.752 557.8 472.42 607.262 471.199 612.255C470.441 615.358 468.037 617.228 465.404 618.796C458.567 622.867 449.86 624.582 442.116 625.868C416.623 630.103 390.248 630.552 364.509 632.43C343.457 633.966 309.515 640.247 289.565 635.41C285.947 634.498 283.044 633.047 279.965 631.015C278.204 623.432 277.878 614.952 277.173 607.196L273.503 564.494C270.198 526.528 265.958 488.585 263.307 450.572C290.619 447.965 318.134 446.637 345.523 445.048L447.294 439.25Z" fill="#FEFEFE"/>
<path d="M668.739 179.75C672.28 179.501 678.502 178.4 681.334 180.814C682.595 183.275 683.059 185.853 683.391 188.573C685.209 203.477 685.626 218.688 686.934 233.663L694.007 317.435C694.906 328.099 698.933 356.083 696.865 365.038C695.537 370.788 690.497 375.864 685.569 378.89C672.024 387.207 565.57 396.169 543.509 396.494C531.28 396.675 519.409 396.361 507.397 393.726C504.587 393.011 501.385 392.079 498.872 390.641C495.519 388.724 494.264 386.33 493.43 382.66C491.335 373.441 491.291 362.903 490.41 353.443L485.312 300.97L478.998 235.676C477.741 223.465 475.913 211.028 475.262 198.789C475.158 196.837 475.385 195.005 476.559 193.394C477.546 192.038 479.651 191.283 481.238 191.02C486.959 190.071 493.133 189.991 498.926 189.568C512.633 188.614 526.348 187.793 540.071 187.105C582.985 185.088 625.874 182.637 668.739 179.75Z" fill="#2A2A2A"/>
<path d="M670.452 187.215C672.051 187.128 673.111 186.859 674.57 187.559C675.672 192.026 675.423 197.369 675.828 201.983C676.962 214.254 678.009 226.532 678.968 238.818L684.532 311.169C685.753 326.048 687.544 340.973 688.394 355.87C688.55 358.599 688.793 362.02 688.003 364.644C686.912 368.272 683.17 372.061 679.861 373.761C667.479 380.125 545.37 389.854 526.21 389.616C518.674 389.523 511.917 388.685 504.716 386.436C504.263 386.162 503.827 385.862 503.41 385.537C502.161 384.555 502.08 382.742 501.86 381.262C500.864 374.568 500.448 367.708 499.787 360.968L496.065 323.017L483.389 197.805C545.669 193.061 608.12 191.096 670.452 187.215Z" fill="#FEFEFE"/>
<path d="M672.744 329.591C673.225 329.835 673.741 329.972 674.043 330.444C675.916 333.375 677.834 352.08 677.289 355.87C676.226 355.834 675.794 355.716 674.918 355.109C672.661 350.883 671.874 334.584 672.744 329.591Z" fill="#2A2A2A"/>
<path d="M660.724 336.11C660.891 336.158 661.062 336.195 661.225 336.253C662.346 336.649 662.671 336.747 663.159 337.868C664.614 341.211 667.245 355.029 665.879 358.171C664.825 358.326 664.39 358.323 663.428 357.853C660.593 353.402 659.856 341.28 660.724 336.11Z" fill="#2A2A2A"/>
<path d="M602.067 348.744C602.489 348.754 603.034 348.76 603.442 348.803C604.117 348.875 604.93 348.812 605.299 349.443C606.967 352.292 607.917 366.613 607.135 369.889C606.485 369.739 605.601 369.707 605.108 369.225C602.006 366.189 601.936 353.132 602.067 348.744Z" fill="#2A2A2A"/>
<path d="M622.808 335.631C623.675 335.95 624.282 336.302 625.058 336.789C626.088 338.561 626.426 340.489 626.759 342.489C627.614 347.622 630.33 361.63 627.532 365.609C626.701 365.373 626.067 365.206 625.358 364.685C623.74 363.495 623.434 359.406 623.17 357.49C622.545 352.956 620.189 341.406 621.545 337.298C621.692 336.852 622.496 336.043 622.808 335.631Z" fill="#2A2A2A"/>
<path d="M548.992 338.773C550.104 338.821 551.154 338.964 552.252 339.147C552.856 340.086 553.034 340.879 553.218 341.965C554.101 347.152 556.961 368.397 554.542 371.742C553.372 371.474 552.479 371.419 551.654 370.479C550.446 365.9 546.946 342.303 548.992 338.773Z" fill="#2A2A2A"/>
<path d="M528.25 328.189C529.886 328.336 530.907 328.309 532.063 329.552C533.708 336.358 537.194 365.704 536.194 371.771C534.957 371.932 534.21 372.061 533 371.646C530.466 368.157 528.222 334.062 528.25 328.189Z" fill="#2A2A2A"/>
<path d="M637.725 311.708C639.081 311.891 639.885 312.017 641.08 312.747C641.879 313.751 642.023 314.537 642.243 315.77C643.791 324.445 647.053 354.623 646.261 362.242C646.166 363.156 645.767 363.743 645.25 364.474C644.153 364.423 643.326 364.263 642.287 363.911C641.411 362.931 641.316 361.997 641.113 360.741C639.689 351.965 639.13 342.834 638.21 333.978C637.565 327.776 636.207 320.849 636.519 314.659C636.582 313.407 637.015 312.711 637.725 311.708Z" fill="#2A2A2A"/>
<path d="M662.862 218.468C664.637 218.276 665.162 218.385 666.583 219.38C669.443 224.312 667.76 240.586 667.435 246.742C667.349 248.361 667.289 250.14 666 251.284C665.19 251.243 665.346 251.38 664.742 250.896C661.726 248.484 662.192 230.277 661.415 225.772C660.168 225.611 658.468 226.503 657.266 226.953C652.673 228.884 641.901 234.199 637.452 234.391C636.11 234.449 635.615 234.264 634.615 233.405L634.562 232.279C637.442 228.652 657.093 220.963 662.862 218.468Z" fill="#2A2A2A"/>
<path d="M566.386 288.774C567.529 289.151 568.159 289.401 569.002 290.274C570.461 295.385 576.393 359.18 575.589 363.678C575.32 365.181 574.488 365.455 573.349 366.247C573.155 366.075 572.956 365.909 572.767 365.731C571.91 364.923 571.343 364.341 571.092 363.16C569.563 355.968 569.407 347.865 568.607 340.522C567.246 328.718 566.038 316.898 564.983 305.062C564.609 300.842 563.618 295.663 564.047 291.51C564.198 290.043 565.32 289.59 566.386 288.774Z" fill="#2A2A2A"/>
<path d="M652.722 235.241C653.895 235.396 654.477 235.58 655.445 236.265C655.908 237.987 655.572 238.709 654.775 240.277C649.38 250.902 641.039 260.915 634.256 270.74C626.951 281.32 619.869 293.438 611.583 303.172C610.296 304.684 609.019 306.22 607.084 306.863C600.661 304.737 577.22 259.503 571.701 250.486C556.714 268.173 535.607 287.573 518.518 303.701C517.422 303.497 516.805 302.947 515.936 302.28C515.76 301.646 515.496 301.362 515.841 300.75C518.248 296.488 538.166 277.517 542.606 272.946C551.24 264.055 559.431 254.584 568.528 246.165C569.883 244.91 571.228 243.698 573.032 243.167C574.843 243.847 576.273 245.762 577.351 247.301C580.669 252.041 583.205 257.646 586.059 262.71C589.632 269.048 593.527 275.202 597.111 281.534C600.455 287.442 603.421 293.548 606.962 299.344C616.26 285.65 625.868 272.206 635.357 258.648C640.447 251.373 646.209 241.025 652.722 235.241Z" fill="#2A2A2A"/>
<path d="M426.629 193.75C429.416 193.573 432.203 193.414 434.991 193.272C437.95 193.128 443.039 192.832 445.146 195.452C446.83 197.546 449.167 230.482 449.611 235.389C451.369 254.795 452.272 274.272 454.124 293.657L459.453 349.503C460.295 358.777 462.473 369.82 461.082 378.995C460.396 383.524 457.344 387.026 453.693 389.597C447.088 394.247 438.437 396.739 430.671 398.551C407.981 403.847 383.795 405.5 360.617 407.7C332.977 410.324 294.785 415.309 267.8 410.893C262.075 409.888 255.505 407.424 252.052 402.526C249.834 399.38 249.168 395.272 248.69 391.523C246.922 377.659 246.472 363.496 245.085 349.568L235.346 249.589C234.572 241.894 230.437 210.826 231.308 206.301C232.86 204.633 236.048 204.347 238.235 204.071C257.473 201.643 277.482 201.6 296.868 200.48L426.629 193.75Z" fill="#2A2A2A"/>
<path d="M432.311 200.294C434.286 200.133 436.276 200.076 438.255 199.979C439.092 215.837 441.005 231.682 442.386 247.503L449.336 329.18L451.773 356.977C452.291 362.463 453.093 368.013 453.287 373.518C453.354 375.433 453.432 377.277 452.658 379.069C450.778 383.424 446.346 385.76 442.148 387.416C435.287 390.121 427.882 391.867 420.631 393.135C398.911 396.935 376.293 398.471 354.334 400.619C328.603 403.136 301.831 406.899 275.968 405.461C271.361 405.205 267.23 404.592 262.979 402.718C262.566 402.458 262.593 402.486 262.133 402.129C260.366 400.758 259.18 399.328 258.697 397.107C257.482 391.512 257.255 385.544 256.761 379.845C255.875 369.624 255.119 359.375 254.04 349.173C249.158 303.011 245.454 256.574 239.252 210.574L432.311 200.294Z" fill="#FEFEFE"/>
<path d="M470.441 669.567C473.228 669.391 476.015 669.232 478.803 669.09C481.762 668.946 486.851 668.649 488.958 671.269C490.642 673.363 492.979 706.3 493.423 711.207C495.181 730.613 496.084 750.09 497.936 769.475L503.265 825.32C504.107 834.594 506.285 845.637 504.894 854.812C504.208 859.341 501.156 862.843 497.505 865.414C490.9 870.064 482.249 872.556 474.483 874.368C451.793 879.664 427.607 881.318 404.429 883.518C376.789 886.142 338.597 891.127 311.612 886.711C305.887 885.706 299.317 883.242 295.864 878.344C293.646 875.198 292.98 871.09 292.502 867.341C290.734 853.477 290.284 839.313 288.897 825.385L279.158 725.407C278.384 717.712 274.249 686.643 275.12 682.118C276.672 680.45 279.86 680.164 282.047 679.888C301.285 677.46 321.294 677.417 340.68 676.297L470.441 669.567Z" fill="#2A2A2A"/>
<path d="M476.123 676.112C478.098 675.951 480.088 675.894 482.067 675.797C482.904 691.655 484.817 707.5 486.198 723.321L493.148 804.997L495.585 832.794C496.103 838.28 496.905 843.831 497.099 849.336C497.166 851.251 497.244 853.095 496.47 854.887C494.59 859.242 490.158 861.577 485.96 863.233C479.099 865.938 471.694 867.685 464.443 868.953C442.723 872.753 420.105 874.288 398.146 876.436C372.415 878.953 345.643 882.717 319.78 881.279C315.173 881.023 311.042 880.409 306.791 878.535C306.378 878.275 306.405 878.304 305.945 877.947C304.178 876.576 302.992 875.145 302.509 872.924C301.294 867.329 301.067 861.362 300.573 855.663C299.687 845.442 298.931 835.193 297.852 824.991C292.97 778.829 289.266 732.392 283.064 686.392L476.123 676.112Z" fill="#FEFEFE"/>
<path d="M391.226 702C392.432 702.131 393.218 702.292 394.316 702.802C396.35 705.167 410.547 749.456 412.811 756.577L447.712 756.685C453.631 756.7 460.05 756.228 465.917 756.977C467.059 757.123 468.403 757.404 469.225 758.285C469.982 759.095 469.937 759.655 470 760.69C469.58 761.777 469.188 762.4 468.304 763.168C463.502 767.346 457.793 770.769 452.561 774.397C445.572 779.317 438.66 784.344 431.825 789.478C433.735 798.529 449.777 836.623 447.81 840.757C447.255 841.922 446.027 842.739 444.815 843.097C443.828 843.389 442.888 843.392 441.917 843.038C438.143 841.668 434.217 838.65 430.831 836.49C422.071 830.873 413.349 825.198 404.665 819.463C400.97 817.067 396.995 813.971 393.047 812.08C392.115 811.634 392.033 811.745 391.101 812.074C384.528 816.069 378.346 820.684 371.953 824.958C364.008 830.27 355.759 835.36 347.631 840.405C345.585 841.675 341.621 844.449 339.152 843.579C338.187 843.239 337.454 842.468 337.064 841.533C336.55 840.298 336.737 839.189 337.087 837.951C338.934 831.42 342.836 824.924 345.81 818.823C349.238 811.633 352.588 804.407 355.86 797.145C352.944 794.664 349.317 792.679 346.166 790.474C338.21 784.908 330.026 779.218 322.554 773.013C319.469 770.452 314.208 766.379 314.005 762.026C313.945 760.741 314.442 759.742 315.359 758.872C316.885 757.423 319.58 756.995 321.568 756.733C326.485 756.084 331.906 756.537 336.872 756.558C347.112 756.642 357.351 756.649 367.59 756.581C368.762 753.352 369.672 749.986 370.745 746.718C374.255 736.036 378.77 725.793 383.385 715.553C385.161 711.612 386.831 707.005 389.317 703.485C389.844 702.74 390.426 702.406 391.226 702Z" fill="#010101"/>
<path d="M323.132 765.626C325.066 766.259 358.903 788.301 359.867 789.655L359.421 791.335L358.71 791.625C354.972 791.393 327.861 769.541 323.132 765.626Z" fill="#FEFEFE"/>
<path d="M391.055 803.674C391.123 803.681 391.191 803.682 391.257 803.696C397.075 804.945 433.988 829.051 440.061 833.615C441.279 834.53 442.181 835.699 443.099 836.901C438.125 835.629 406.757 814.219 400.652 810.238C397.816 808.422 394.971 806.673 392.032 805.029C386.085 807.839 380.468 812.281 375.004 815.938C366.601 821.552 358.109 827.028 349.527 832.365C355.782 825.979 363.947 821.336 371.387 816.431C377.902 812.136 384.369 807.697 391.055 803.674Z" fill="#FEFEFE"/>
<path d="M392.717 717.251C395.971 720.922 402.973 744.303 405.054 750.674C406.22 754.246 407.171 758.558 409.269 761.692C415.608 762.603 422.32 762.213 428.723 762.24L459.808 762.401C453.188 767.627 428.853 782.793 425.646 787.91C425.052 792.946 436.07 818.161 438.235 825.723C433.262 822.172 427.967 819 422.812 815.72C414.477 810.416 406.163 805.116 397.517 800.325C395.715 799.177 393.918 798.187 392 797.25C385.237 799.686 378.62 804.859 372.583 808.749C366.719 812.529 360.667 816.099 355.074 820.272C358.178 812.25 362.371 804.758 366.861 797.447C367.564 796.301 370.37 792.324 370.156 791.142C369.453 787.243 335.439 766.351 329.424 762.393L362.251 762.271C366.247 762.252 371.74 762.943 375.551 761.982C379.122 756.535 380.909 748.658 383.098 742.509C386.141 734.028 389.348 725.608 392.717 717.251Z" fill="#FEFEFE"/>
<path d="M369.808 455.459C385.062 454.091 411.254 455.752 424.925 461.733C428.974 463.505 434.78 467.014 435.904 471.61C436.459 473.881 434.957 477.359 434.038 479.409C431.797 484.402 428.845 489.191 426.175 493.965C421.385 502.724 416.402 511.371 411.226 519.907C403.332 533.057 395.778 546.45 388.058 559.706C389.011 570.066 392.894 606.335 391.067 614.726C390.474 617.451 388.795 619.252 386.417 620.63C378.522 625.207 367.786 625.811 359.133 623.482C357.516 622.795 355.84 622.046 354.413 621.008C352.866 619.882 352.084 618.313 351.604 616.505C349.994 610.453 350.15 603.43 349.775 597.17C349.09 585.739 348.581 574.22 347.336 562.836C339.111 554.434 331.857 544.402 324.503 535.222C316.541 525.423 308.816 515.441 301.328 505.276C297.31 499.887 292.969 494.49 289.577 488.682C288.355 486.59 286.935 483.854 286.903 481.382C286.88 479.547 288.599 477.349 289.805 476.06C304.633 460.207 348.756 456.713 369.808 455.459Z" fill="black"/>
<path d="M297.392 491.062C299.734 491.624 302.941 491.836 304.678 493.562C305.419 495.278 304.969 496.827 304.671 498.596L303.478 498.443C301.039 496.304 299.273 493.68 297.392 491.062Z" fill="white"/>
<path d="M308.132 493.428L315.293 494.491C314.064 498.393 312.708 502.264 311.412 506.145C311.016 506.751 311.292 506.406 310.468 507.073C308.617 505.955 307.428 503.676 306.23 501.909C306.767 499.06 307.401 496.233 308.132 493.428Z" fill="white"/>
<path d="M317.225 494.672L325.128 495.363C323.131 501.283 320.5 507.025 318.074 512.78C317.628 513.912 317.564 514.538 316.571 515.306C314.689 514.276 313.683 511.873 312.534 510.062C314.579 505.016 316.797 500.153 317.225 494.672Z" fill="white"/>
<path d="M327.614 495.615L336.145 496.011C333.436 505.676 328.84 515.109 324.951 524.359L324.235 525.51C322.165 524.802 319.925 520.999 318.534 519.167C322.002 511.486 325.028 503.636 327.614 495.615Z" fill="white"/>
<path d="M338.783 496.15C341.772 496.057 344.791 496.168 347.783 496.193C342.154 507.527 337.362 519.476 332.639 531.212C332.216 532.371 332.051 533.073 331.027 533.838C328.704 533.127 327.118 530.334 325.645 528.431C331.358 520.152 336.371 505.86 338.783 496.15Z" fill="white"/>
<path d="M351.342 496.052L357.59 495.668C354.884 504.227 351.317 512.489 348.096 520.861C344.967 528.992 342.143 537.253 339.25 545.471C337.156 543.036 335.181 540.496 333.178 537.986C337.373 527.038 345.593 504.839 351.342 496.052Z" fill="white"/>
<path d="M396.827 491.354L397.594 491.402C398.645 495.092 375.405 551.061 372.742 560.237C370.811 560.624 368.808 560.783 366.853 561.018C366.151 560.991 366.576 561.064 365.635 560.568C365.669 555.806 371.458 545.979 373.367 541.116C379.599 525.236 386.85 508.867 391.463 492.459L396.827 491.354Z" fill="white"/>
<path d="M387.484 493.034L387.68 493.3C386.906 498.147 383.764 503.572 382.035 508.233C375.551 525.718 368.035 543.028 362.092 560.671L356.478 560.155L355.843 559.75C356.652 554.254 360.679 545.93 362.713 540.434C368.441 524.959 374.374 509.66 379.359 493.917C382.063 493.582 384.771 493.288 387.484 493.034Z" fill="white"/>
<path d="M371.511 494.972C372.897 494.823 374.28 494.522 375.621 495.012C373.015 504.673 368.489 514.484 364.99 523.896C360.699 535.437 356.951 547.432 352.114 558.731C347.778 555.729 344.34 551.335 340.852 547.416C347.57 535.035 354.012 515.034 358.984 501.348L361.108 495.549C363.039 495.383 364.988 495.343 366.925 495.257C365.051 500.053 345.863 550.501 345.93 551.13C346.013 551.908 346.661 552.206 347.205 552.689L348.059 552.375C350.261 548.557 351.7 544.194 353.32 540.103C356.525 532.011 359.703 523.963 362.594 515.751C364.773 509.559 366.693 502.612 369.495 496.717C370.124 495.394 370.183 495.409 371.511 494.972Z" fill="white"/>
<path d="M423.705 484.323L424.159 484.456C423.285 488.054 386.395 553.747 383.328 557.473C380.763 558.366 378.089 558.896 375.445 559.501C380.993 546.612 386.34 533.64 391.487 520.586C395.201 510.337 399.032 500.133 402.982 489.974C406.553 489.459 410.152 488.438 413.673 487.628C408.005 497.691 398.74 518.698 396.104 529.707C405.591 517.107 411.333 500.793 417.397 486.32L423.705 484.323Z" fill="white"/>
<path d="M380.794 564.382L381.484 564.354C381.792 564.692 381.925 564.789 382.109 565.275C382.79 567.077 385.604 603.85 385.755 607.712C385.819 609.356 385.983 611.688 385.28 613.214C384.169 615.625 381.022 616.893 378.673 617.701C372.71 619.753 365.353 620.266 359.646 617.383C358.591 616.325 357.9 615.529 357.491 614.069C355.873 608.288 355.969 601.731 355.632 595.754C355.072 585.824 354.701 575.794 353.145 565.961C362.885 567.072 371.252 566.163 380.794 564.382Z" fill="white"/>
<path d="M356.701 570.006C357.49 570.093 358.114 570.131 358.829 570.514C359.494 570.87 359.666 571.737 359.83 572.438C361.645 580.197 361.671 588.938 362.525 596.887C363.125 602.462 364.554 608.876 364.398 614.413C364.365 615.61 363.867 616.431 363.277 617.444C362.669 617.334 362.259 617.335 361.744 617.024C360.712 616.403 360.137 615.16 359.769 614.058C358.293 609.638 354.703 573.89 356.701 570.006Z" fill="black"/>
<path d="M377.509 460.974C392.357 460.658 413.631 460.804 426.512 468.67C428.4 469.823 429.797 470.66 430.374 472.893C430.222 473.969 429.984 474.636 429.202 475.426C425.61 479.059 418.494 480.661 413.673 481.95C391.027 488.005 367.983 490.27 344.595 490.99C335.371 491.246 297.815 489.64 292.598 484.083C292.068 483.519 291.791 483.099 291.813 482.323C291.847 481.126 292.371 480.305 293.185 479.457C295.365 477.185 298.834 475.509 301.651 474.15C324.042 463.349 353.004 461.653 377.509 460.974Z" fill="white"/>
<path d="M360.986 233.19C369.567 232.31 377.703 234.565 385.37 238.303C397.708 244.319 415.574 258.154 419.833 271.804C420.599 274.26 420.611 276.871 419.308 279.148C415.633 285.569 400.212 288.228 393.172 290.267C382.443 292.754 358.815 301.196 349.302 299.067C348.111 297.885 347.629 296.436 347.12 294.87C344.911 288.075 339.832 242.131 343.103 238.027C345.759 234.694 356.886 233.784 360.986 233.19Z" fill="#040203"/>
<path d="M360.999 238.691C367.596 237.647 375.106 239.43 381.089 242.165C394.814 248.437 409.921 260.99 415.378 275.44C409.052 280.017 400.944 282.204 393.596 284.577C380.097 288.589 366.321 292.218 352.422 294.541C350.793 288.17 350.432 281.294 349.775 274.766C348.667 263.758 347.348 252.501 347.657 241.423C352.036 240.179 356.483 239.268 360.999 238.691Z" fill="#FEFEFE"/>
<path d="M329.26 235.57C331.786 235.317 333.792 235.143 336.015 236.519C337.222 238.064 337.263 240.469 337.491 242.363C338.702 252.432 339.018 262.715 339.856 272.833C340.647 282.401 341.957 291.706 343.114 301.215C341.558 305.166 335.025 305.324 331.448 306.415C315.929 311.149 300.559 318.936 286.677 327.277C284.284 328.646 281.423 330.84 278.555 330.065C277.316 328.934 276.834 327.934 276.419 326.304C272.455 310.748 277.236 278.657 285.339 264.909C294.679 249.062 311.899 239.998 329.26 235.57Z" fill="#040203"/>
<path d="M283.112 296.326C287.132 300.044 293.84 304.929 295.875 310.137C291.971 307.491 286.454 303.966 283.595 300.173C282.529 298.761 282.919 297.95 283.112 296.326Z" fill="#FEFEFE"/>
<path d="M329.85 242.555L330.101 242.619C331.931 244.73 331.285 250.046 331.297 252.807L328.217 250.092C326.134 248.49 324.156 246.76 322.158 245.054C324.668 244.039 327.253 243.309 329.85 242.555Z" fill="#FEFEFE"/>
<path d="M289.482 271.38C293.945 274.591 315.899 293.804 319.274 298.062L318.779 298.496C314.504 295.592 310.562 292.381 306.714 288.938C304.513 286.968 302.206 284.466 299.782 282.81C295.854 280.125 291.263 279.248 288.043 275.495C287.925 273.973 288.81 272.694 289.482 271.38Z" fill="#FEFEFE"/>
<path d="M285.595 283.154C288.905 285.012 297.508 291.245 298.876 294.795C299.155 295.52 298.624 296.226 298.353 296.905C298.728 299.954 306.341 303.465 308.772 305.672L308.43 306.534C307.245 307.215 306.546 307.6 305.153 307.738C298.018 302.062 291.622 294.693 284.922 288.431C284.492 286.769 285.204 284.806 285.595 283.154Z" fill="#FEFEFE"/>
<path d="M296.753 260.525C298.992 263.312 301.875 265.774 304.402 268.302C309.334 273.236 314.433 279.068 317.963 285.125L317.572 285.379L316.202 284.44C308.434 278.202 300.773 271.339 292.488 265.812C293.834 263.989 295.306 262.267 296.753 260.525Z" fill="#FEFEFE"/>
<path d="M303.866 254.921C307.055 255.877 319.02 270.81 322.518 274.222C325.977 277.597 329.696 280.576 333.508 283.532C334.061 285.991 335.19 290.241 334.494 292.69L333.766 292.535C326.828 285.782 321.926 276.855 315.493 269.531C311.295 264.75 306.02 261.709 301.578 257.278L301.616 256.462L303.866 254.921Z" fill="#FEFEFE"/>
<path d="M315.091 247.91C320.304 250.181 326.89 258.366 332.058 262.09C332.305 264.545 333.439 270.055 332.289 272.16L331.135 271.169C324.704 263.842 317.556 257.12 310.364 250.554L315.091 247.91Z" fill="#FEFEFE"/>
<path d="M413.839 292.569C414.691 292.463 415.514 292.383 416.375 292.493C418.75 292.798 419.748 294.68 421.024 296.466C422.268 308.968 418.06 323.417 411.578 334.064C400.649 352.015 381.997 365.703 361.571 370.604C340.938 375.555 319.177 372.599 301.126 361.45C293.887 356.233 285.318 348.025 282.241 339.422C281.822 338.248 281.471 336.867 282.183 335.764C284.054 332.863 344.684 305.831 350.77 304.326C357.936 302.554 365.465 302.625 372.743 301.52C386.631 299.404 400.33 296.421 413.839 292.569Z" fill="#040203"/>
<path d="M374.646 307.215C375.551 307.252 376.104 307.406 376.928 307.779C382.49 314.615 389.156 322.867 392.245 331.127C388.465 327.97 385.679 323.978 382.021 320.784C380.319 319.298 378.858 318.142 376.527 318.286L375.693 319.312C375.262 321.46 376.056 323.195 376.738 325.204C373.762 325.103 366.261 315.46 363.688 313.02C362.174 311.586 360.405 310.39 358.698 309.2C360.776 308.906 364.377 307.969 366.202 308.984C367.034 310.802 367.807 312.087 369.404 313.333C371.461 314.939 373.418 316.112 376.13 315.471C377.23 315.211 377.48 315.12 378.014 314.171C377.792 311.558 376.309 310.206 374.401 308.582L373.908 308.169L374.646 307.215Z" fill="#FEFEFE"/>
<path d="M413.308 299.149C414.343 299.002 413.79 298.969 414.953 299.381C416.732 303.768 413.547 314.601 412.33 319.308C408.275 334.991 393.475 349.276 379.895 357.14C362.978 366.936 340.261 369.26 321.493 364.153C306.535 360.084 295.12 351.521 287.432 338.07C298.947 333.533 310.086 327.803 321.274 322.511C331.006 317.884 341.271 312.296 351.542 309.109C359.712 317.362 367.553 325.694 374.106 335.317C377.302 340.012 380.166 347.062 383.76 351.028C384.719 352.086 385.259 352.078 386.638 352.134C389.105 350.122 386.674 347.142 387.561 344.6C387.838 344.703 388.113 344.81 388.392 344.908C389.954 345.455 391.955 345.505 393.397 344.553C394.445 343.861 394.366 343.3 394.4 342.196C393.745 341.075 393.077 340.224 392.181 339.282L391.872 338.962C391.755 337.8 391.563 337.578 392.121 336.504C393.597 336.815 395.088 337.115 396.585 337.296C398.258 337.497 399.392 337.399 400.779 336.339C402.111 333.723 399.905 329.862 399.102 327.242L399.461 326.711C399.947 327.14 400.43 327.589 400.977 327.944C402.021 328.621 403.31 329.082 404.547 328.699C405.63 328.364 406.438 327.572 406.963 326.589C410.26 320.412 401.474 316.871 399.911 311.828C403.463 313.942 404.708 319.655 408.963 320.911C409.846 320.628 410.076 320.699 410.681 319.931C411.737 318.59 412.464 316.297 412.213 314.592C411.478 309.59 405.115 304.963 401.413 302.023C405.369 300.872 409.245 299.848 413.308 299.149Z" fill="#FEFEFE"/>
</g>
<defs>
<clipPath id="clip0_2049_322">
<rect width="1024" height="1024" fill="white"/>
</clipPath>
</defs>
</svg>
