<svg width="1024" height="1024" viewBox="0 0 1024 1024" fill="none" xmlns="http://www.w3.org/2000/svg">
<g clip-path="url(#clip0_2049_270)">
<path d="M0 0H1024V1024H0V0Z" fill="#FEFEFE"/>
<path d="M189.58 526.664C191.247 526.43 193.001 526.311 194.537 527.072L194.663 527.826C189.683 534.171 159.089 542.731 150.113 544.929C148.904 545.188 147.742 545.499 146.495 545.37C145.613 545.279 145.904 545.287 145.229 544.475C145.422 543.933 145.422 543.822 145.832 543.301C151.251 536.428 180.842 527.954 189.58 526.664Z" fill="black"/>
<path d="M112.623 284.549C119.113 284.111 127.13 288.576 132.868 291.351C139.189 294.408 166.891 306.936 168.975 312.929C160.606 313.628 142.56 303.754 134.622 299.529C129.71 296.914 114.136 289.502 112.623 284.549Z" fill="black"/>
<path d="M663.705 131.357C663.773 131.418 663.857 131.465 663.911 131.54C664.449 132.283 664.493 132.501 664.419 133.45C663.631 143.528 644.021 176.357 636.376 182.747C635.57 181.547 635.58 180.465 635.831 179.075C637.7 168.716 655.285 136.881 663.705 131.357Z" fill="black"/>
<path d="M829.525 454.138C838.735 453.176 876.101 455.201 883.503 459.216C884.615 459.819 884.987 460.215 885.308 461.414C884.293 462.375 883.262 462.37 881.944 462.518C870.773 464.25 835.067 461.75 825.554 456.804L825.294 455.18C826.589 454.541 828.114 454.397 829.525 454.138Z" fill="black"/>
<path d="M437.407 101.095C437.608 101.177 437.815 101.247 438.011 101.341C439.812 102.209 440.769 105.194 441.44 106.991C445.084 116.761 453.727 158.362 449.668 167.301C448.272 166.622 447.681 165.952 447.066 164.548C443.151 155.613 434.383 109.208 437.407 101.095Z" fill="black"/>
<path d="M197.121 160.799C198.001 161.027 198.789 161.274 199.592 161.712C208.404 166.508 244.651 203.5 247.056 212.038C241.8 210.868 237.916 207.25 233.978 203.769C225.598 196.363 203.176 173.879 198.27 165.119C197.471 163.693 197.218 162.413 197.121 160.799Z" fill="black"/>
<path d="M775.71 242.546L776.84 242.721L777.38 243.486C777.213 244.056 777.241 244.086 776.862 244.67C773.115 250.454 735.387 269.299 727.256 272.895C723.608 274.509 719.968 275.799 716.134 276.894C715.11 276.542 714.916 276.458 714.204 275.654L714.434 274.519C720.496 266.86 764.836 244.946 775.71 242.546Z" fill="black"/>
<path d="M67.4865 399.196C80.0726 398.143 135.762 404.27 144.603 410.953C145.567 411.681 145.62 411.847 145.781 412.974C130.372 412.626 115.197 410.524 99.9849 408.168C90.7247 406.733 81.4096 405.445 72.3281 403.089C70.2222 402.543 68.1692 402.235 66.9982 400.26L67.4865 399.196Z" fill="black"/>
<path d="M853.204 356.711C858.08 356.486 863.054 356.272 867.935 356.506C870.056 356.608 873.997 356.717 875.469 358.359L875.067 359.201C865.693 364.4 832.217 365.103 820.123 365.931C813.52 366.289 806.155 367.215 799.604 366.484C798.151 366.322 795.962 366.16 794.974 364.971C795.052 364.853 795.114 364.722 795.207 364.616C799.593 359.646 844.359 357.242 853.204 356.711Z" fill="black"/>
<path d="M320.515 115.953C321.714 116.886 322.44 118.048 323.141 119.373C329.704 131.774 346.646 177.107 348.437 189.753C348.65 191.256 348.522 192.355 348.09 193.798C346.186 192.154 344.76 190.433 343.517 188.243C337.942 178.423 334.252 166.789 330.35 156.171C327.612 148.724 324.614 141.291 322.28 133.71C320.822 128.975 318.063 120.589 320.515 115.953Z" fill="black"/>
<path d="M552.635 90.8119C553.148 91.3391 553.359 91.4431 553.571 92.1873C555.697 99.6612 537.492 172.368 532.089 181.121C531.468 179.87 530.78 178.631 530.682 177.209C529.953 166.595 543.325 111.604 547.746 99.6627C548.992 96.2959 550.265 93.5736 552.635 90.8119Z" fill="black"/>
<path d="M558.832 237.685C558.977 237.67 559.122 237.65 559.268 237.641C569.881 236.986 582.443 241.689 590.264 248.806C597.62 255.499 608.662 278.654 613.959 288.13L645.009 343.526L749.476 530.243C764.699 557.734 782.065 584.421 795.601 612.802C798.879 619.675 799.375 626.138 799.742 633.609C801.132 629.119 802.794 625.226 806.121 621.758C809.867 617.854 814.819 615.429 820.272 615.383C832.513 615.278 844.052 626.446 852.127 634.487C855.362 637.702 858.504 641.006 861.551 644.4C864.598 647.794 867.546 651.272 870.395 654.833C873.244 658.395 875.99 662.035 878.632 665.753C881.274 669.471 883.808 673.261 886.234 677.123C897.565 695.535 905.106 716.146 913.922 735.805C919.019 747.171 925.029 758.476 931.415 769.163C936.619 777.873 957.661 804.996 957.691 812.641C957.039 813.789 956.985 813.909 955.81 814.49C951.499 814.236 945.962 803.336 943.725 799.955C932.397 782.832 920.758 765.718 911.915 747.133C902.273 726.871 895.146 705.06 883.742 685.708C873.169 667.768 859.323 650.552 844.524 635.918C838.619 630.078 829.509 621.635 820.604 621.926C816.843 622.049 813.746 623.675 811.22 626.411C803.483 634.795 805.092 649.348 808.192 659.467C809.357 663.27 811.79 667.981 811.742 671.988C811.724 673.526 811.265 674.282 810.17 675.299C807.367 673.935 804.91 670.624 802.876 668.292C795.825 660.211 787.74 651.74 776.92 649.064C773.428 648.2 769.685 648.216 766.564 650.198C762.03 653.078 760.617 657.917 759.673 662.852C762.81 669.685 772.526 684.883 772.197 691.811C771.387 693.128 771.172 693.338 769.825 694.095C768.492 694.037 768.149 694.14 767.196 693.079C765.162 690.813 763.853 686.578 762.617 683.748C758.764 674.923 754.581 665.591 747.677 658.684C743.114 654.12 737.13 651.374 730.614 651.514C725.395 651.626 720.179 653.666 716.668 657.609C704.665 671.085 720.43 695.12 728.124 707.407C730.191 710.709 734.073 714.678 734.073 718.782C734.072 720.16 733.773 720.718 732.849 721.682C732.388 721.745 732.076 721.821 731.589 721.711C731.156 721.614 730.67 721.371 730.28 721.138C724.622 717.758 701.25 684.484 695.424 677.018C685.469 664.26 674.464 652.368 663.806 640.197L616.875 586.446C616.934 586.642 616.991 586.838 617.053 587.033C617.959 589.85 618.713 592.389 618.617 595.409C618.604 595.93 618.565 596.448 618.498 596.964C618.431 597.481 618.338 597.992 618.218 598.498C618.097 599.005 617.951 599.504 617.778 599.995C617.605 600.486 617.407 600.967 617.184 601.437C616.961 601.908 616.714 602.365 616.443 602.809C616.172 603.254 615.878 603.683 615.562 604.096C615.246 604.51 614.909 604.906 614.551 605.284C614.194 605.663 613.817 606.021 613.422 606.36C613.014 606.714 612.589 607.046 612.147 607.357C611.705 607.668 611.248 607.955 610.776 608.218C610.305 608.482 609.821 608.721 609.324 608.935C608.828 609.148 608.322 609.336 607.807 609.498C607.292 609.66 606.769 609.795 606.24 609.904C605.711 610.012 605.177 610.093 604.639 610.147C604.102 610.2 603.563 610.226 603.022 610.224C602.482 610.223 601.943 610.193 601.406 610.136C589.435 608.895 579.24 596.051 572.011 587.582C577.442 601.93 595.853 624.74 605.366 637.966L681.402 742.312L717.626 792.295C722.869 799.483 730.432 808.007 734.369 815.774C735.045 817.107 735.052 818.055 734.629 819.487C733.792 820.294 733.368 820.8 732.086 820.765C730.685 820.727 729.253 819.788 728.352 818.783C726.119 816.292 724.203 813.268 722.179 810.582C716.684 803.333 711.307 795.997 706.048 788.575C695.22 773.242 684.162 758.076 672.875 743.078L666.044 745.934C667.894 753.703 669.858 761.554 670.177 769.568C670.455 776.561 669.513 785.058 664.385 790.284C660.437 794.307 655.849 794.96 650.513 795.04C657.101 807.783 663.2 820.956 670.768 833.154C690.648 865.201 717.411 883.21 746.429 905.798C752.076 910.194 772.229 925.109 775.653 929.958C776.419 931.042 776.446 932.243 776.259 933.502C775.412 934.695 775.442 934.65 774.014 934.986C772.496 934.565 771.379 933.987 770.092 933.074C766.88 930.794 763.986 927.784 760.901 925.295C754.645 920.249 748.187 915.434 741.806 910.546C698.44 877.329 677.431 862.707 652.514 813.197C644.353 796.982 637.225 779.188 634.135 761.234C627.655 764.815 620.964 768.018 614.485 771.61C601.688 778.703 589.069 786.208 576.078 792.944C562.67 799.896 548.874 806.135 535.365 812.892C522.922 819.115 493.648 835.249 481.203 836.851C470.765 838.195 460.04 835.618 451.735 829.08C443.846 822.869 437.471 813.14 432.786 804.384C427.826 795.114 423.666 785.368 418.974 775.954C401.415 740.431 384.167 704.758 367.23 668.933C341.693 616.743 315.339 564.969 288.168 513.612L253.866 449.124C247.555 437.523 241.238 425.956 235.123 414.248C232.196 408.642 228.961 403.066 226.48 397.248C224.855 393.439 223.677 389.506 223.236 385.379C221.961 373.447 226.996 361.173 234.485 352.045C240.349 344.899 248.471 338.837 256.968 335.203C271.055 329.177 287.594 325.025 302.255 320.243C334.836 309.492 367.47 298.906 400.157 288.485L508.021 252.982L535.725 243.938C543.295 241.482 550.878 238.515 558.832 237.685Z" fill="black"/>
<path d="M705.381 666.516C706.345 667.999 706.376 673.739 706.788 675.939C707.393 679.172 708.352 681.952 709.571 684.994L705.895 680.022C703.517 676.823 700.896 673.764 698.429 670.626C700.673 669.139 703.043 667.849 705.381 666.516Z" fill="#FEFEFE"/>
<path d="M648.766 738.609C650.092 738.549 651.568 738.471 652.855 738.835C655.597 739.612 657.493 742.073 658.756 744.495C662.628 751.925 665.446 772.723 662.622 780.715C661.165 784.839 657.896 786.608 654.188 788.369C652.458 788.753 650.993 789.133 649.222 788.867C648.52 788.228 648.547 788.389 648.189 787.676C644.581 780.498 636.781 751.02 640.539 743.899C642.177 740.794 645.65 739.629 648.766 738.609Z" fill="#FEFEFE"/>
<path d="M579.563 563.066C583.321 562.884 586.015 563.991 589.122 565.995C599.019 572.376 610.156 582.958 612.723 594.817C612.334 596.306 611.906 597.771 611.194 599.143C609.621 602.175 607.098 603.121 604.006 604.12C602.322 603.976 600.657 603.742 599.087 603.087C590.151 599.36 575.862 585.299 572.354 576.364C571.405 573.947 571.152 571.297 572.277 568.891C573.682 565.885 576.605 564.219 579.563 563.066Z" fill="#FEFEFE"/>
<path d="M586.33 623.534C588.862 625.969 590.987 629.537 593.087 632.385C598.239 639.342 603.316 646.352 608.319 653.417C617.02 665.626 626.342 677.469 634.753 689.866C628.527 693.577 621.953 696.663 615.508 699.97C609.411 703.098 603.412 706.472 597.14 709.24C594.317 710.182 591.513 710.57 588.6 709.779C586.545 709.221 584.555 708.129 583.113 706.548C576.397 699.185 571.677 688.338 566.812 679.658C562.68 672.287 558.207 665.056 554.229 657.606C551.943 653.324 549.746 649.216 551.423 644.282C552.089 642.324 553.122 640.748 554.712 639.42C560.358 634.704 578.755 627.091 586.33 623.534Z" fill="#FEFEFE"/>
<path d="M558.406 517.49C560.43 517.34 562.487 517.211 564.489 517.637C566.653 518.099 568.406 519.297 569.927 520.867C574.081 525.156 577.15 531.115 580.25 536.198C585.684 545.108 590.909 554.131 596.686 562.827C593.297 561.056 589.696 558.939 586.009 557.894C581.662 556.664 577.305 557.111 573.361 559.349C573.074 559.514 572.792 559.687 572.514 559.866C572.235 560.046 571.962 560.233 571.693 560.426C571.424 560.619 571.161 560.819 570.902 561.026C570.643 561.233 570.39 561.446 570.143 561.665C569.895 561.885 569.653 562.111 569.416 562.342C569.179 562.574 568.949 562.812 568.725 563.055C568.5 563.298 568.282 563.547 568.07 563.801C567.858 564.056 567.653 564.315 567.454 564.58C567.255 564.845 567.063 565.114 566.878 565.389C566.693 565.664 566.515 565.943 566.344 566.226C566.173 566.509 566.009 566.797 565.853 567.089C565.696 567.38 565.547 567.676 565.405 567.975C565.264 568.274 565.13 568.577 565.003 568.883C564.877 569.189 564.759 569.498 564.648 569.81C564.537 570.122 564.434 570.437 564.339 570.754C564.244 571.071 564.158 571.391 564.079 571.712C561.315 582.938 567.861 595.316 573.283 604.724C564.609 608.827 555.936 612.845 547.563 617.545C547.364 617.651 547.166 617.759 546.966 617.862C543.329 619.74 539.547 621.192 535.507 619.765C532.836 618.822 531.548 616.905 530.002 614.683C525.847 608.713 522.917 601.626 519.417 595.223C512.693 582.922 505.515 570.735 499.305 558.167C497.72 554.96 496.057 551.275 497.462 547.699C498.474 545.124 501.609 543.07 503.889 541.719C509.447 538.428 515.897 536.132 521.837 533.575C534.054 528.316 546.424 523.266 558.406 517.49Z" fill="#FEFEFE"/>
<path d="M700.492 568.067C701.877 567.98 703.363 567.947 704.752 568.055C709.083 568.392 713.616 570.197 716.502 573.537C721.011 578.756 736.056 612.233 738.525 620.096C739.831 624.255 741.03 629.261 740.541 633.637C740.017 638.332 737.183 641.761 733.678 644.681C730.63 644.881 727.518 645.035 724.535 645.724C716.57 647.564 711.806 652.199 707.601 658.896C703.001 660.633 698.784 662.923 694.48 665.272C691.505 662.334 688.883 658.972 686.183 655.78C680.847 649.042 674.94 642.742 669.336 636.224C658.686 623.836 648.041 611.381 636.989 599.35C643.038 594.772 651.172 591.626 657.954 588.188C671.661 581.239 685.817 572.645 700.492 568.067Z" fill="#FEFEFE"/>
<path d="M557.331 244.622C566.613 244.176 575.952 246.349 583.539 251.94C586.569 254.172 588.711 256.703 590.648 259.904C597.824 271.763 604.119 284.378 610.979 296.45L682.736 424.934C708.84 470.623 734.562 516.526 759.901 562.643C768.549 578.283 778.073 593.487 786.279 609.374C789.241 615.108 792.338 621.332 793.178 627.81C794.164 635.421 792.101 640.975 787.573 646.908C786.46 646.232 785.317 645.609 784.146 645.039C778.364 642.255 771.822 641.036 765.647 643.382C759.462 645.732 756.353 650.295 753.785 656.076C750.162 652.212 746.632 649.422 741.935 646.983C744.291 643.759 745.969 640.677 746.715 636.68C747.582 632.036 747.475 626.731 746.406 622.126C744.443 613.671 728.135 578.407 723.153 571.223C719.262 565.613 713.528 562.705 706.916 561.56C702.63 560.817 697.66 562.033 693.609 563.443C682.116 567.44 671.146 574.349 660.294 579.832C651.154 584.449 640.719 588.502 632.345 594.309C627.945 589.41 623.595 584.378 618.804 579.854C615.249 576.497 610.759 573.378 607.682 569.601C604.797 566.059 602.994 561.157 600.769 557.153C596.956 550.289 592.68 543.619 588.599 536.911C584.438 530.07 580.45 522.15 574.768 516.424C572.603 514.242 570.277 512.709 567.414 511.586C561.707 509.347 556.243 511.045 550.858 513.301C540.127 517.798 529.551 522.795 518.913 527.513C512.124 530.525 503.901 533.316 497.74 537.437C495.182 539.148 493.114 541.636 492.037 544.532C489.819 550.505 490.622 555.001 493.165 560.616C498.097 571.502 504.543 581.986 510.199 592.533C514.784 601.081 520.095 613.098 525.76 620.546C527.525 622.867 530.043 624.567 532.777 625.538C536.183 626.747 539.607 626.954 543.135 626.194C552.589 624.158 566.962 614.452 576.585 610.115C578.716 612.667 580.67 615.224 582.513 617.992C574.939 620.765 567.598 624.979 560.396 628.613C553.867 631.907 546.743 635.426 544.465 643.017C543.492 646.257 543.708 649.577 544.675 652.789C547.222 661.244 553.183 669.103 557.679 676.614C561.407 682.859 564.937 689.214 568.27 695.679C572.299 703.455 576.908 713.216 585.932 716.067C589.513 717.198 593.52 717.116 597.132 716.182C605.357 714.056 628.939 700.469 638.167 695.732C646.311 704.19 653.129 714.426 660.316 723.709C654.225 726.962 647.354 730.117 641.877 734.31C638.115 737.191 635.335 740.8 631.181 743.256C619.7 750.045 607.775 756.17 596.004 762.442C573.817 774.287 551.477 785.837 528.985 797.094C517.688 802.758 504.326 811.782 492.03 814.283C481.251 816.474 469.459 814.533 460.309 808.309C459.41 807.71 458.548 807.063 457.721 806.368C456.894 805.673 456.107 804.935 455.361 804.154C454.615 803.373 453.914 802.553 453.259 801.695C452.604 800.836 451.997 799.944 451.44 799.019C448.637 794.287 446.474 789.02 443.985 784.102C437.615 771.373 431.164 758.686 424.632 746.039C411.071 720.353 397.329 694.618 384.256 668.688L322.439 542.991C302.448 503.618 282.825 464.063 263.571 424.324C256.674 410.01 244.996 391.578 242.096 376.247C240.46 367.597 241.353 358.63 246.555 351.287C250.293 346.012 255.417 343.016 261.27 340.648C278.747 333.579 300.099 327.804 318.224 321.919L437.023 283.42L521.11 255.666C532.84 251.887 545.208 246.658 557.331 244.622Z" fill="#FEFEFE"/>
<path d="M601.574 383.144C605.232 382.868 609.033 383.403 612.362 384.988C615.031 386.259 616.808 387.906 618.611 390.209C625.644 399.193 631.033 410.42 636.786 420.257C640.989 427.444 648.193 437.031 650.607 444.629C651.837 448.5 651.81 454.43 649.711 458.007C647.824 461.224 644.402 463.923 641.24 465.855C633.303 470.706 623.346 473.862 614.754 477.545C605.59 481.472 596.548 486.453 586.953 489.209C582.32 489.744 577.779 488.901 573.857 486.294C571.617 484.806 569.938 482.962 568.421 480.759C563.145 473.092 558.958 464.046 554.398 455.893C549.425 447.001 543.715 438.211 539.347 429.021C538.222 426.655 537.246 424.143 536.797 421.555C536.043 417.215 536.629 412.722 539.312 409.128C540.378 407.7 541.681 406.456 543.226 405.56C549.844 401.725 593.928 384.317 601.574 383.144Z" fill="black"/>
<path d="M602.975 389.613C604.796 389.694 606.515 389.915 608.243 390.537C610.313 391.282 612.109 392.644 613.484 394.347C619.275 401.519 625.407 413.673 630.253 421.824C634.534 429.025 641.512 438.971 644.48 446.424C645.649 449.357 645.055 452.729 643.64 455.483C642.645 457.419 640.331 458.738 638.485 459.771C629.313 464.903 618.554 468.69 608.862 472.785C601.143 476.046 593.418 480.019 585.458 482.591C582.853 482.616 580.256 482.593 577.928 481.279C576.624 480.543 575.75 479.372 574.928 478.154C571.013 472.35 544.44 425.975 543.075 420.917C542.513 418.831 542.848 415.588 544.017 413.76C545.194 411.92 548.242 410.356 550.149 409.435C558.763 405.276 568.388 402.253 577.356 398.842C585.581 395.714 594.409 391.484 602.975 389.613Z" fill="#FEFEFE"/>
<path d="M653.106 472.667C653.462 472.629 653.818 472.589 654.176 472.575C659.896 472.355 666.312 474.626 670.424 478.669C677.114 485.247 694.738 519.669 698.511 529.514C699.655 532.5 700.523 535.592 700.553 538.813C700.6 543.798 698.849 549.418 695.157 552.907C693.581 554.395 691.752 555.606 689.862 556.658C683.273 560.323 676.133 563.135 669.403 566.552C661.298 570.667 653.379 575.954 644.777 578.93C641.075 580.211 637.757 580.583 633.871 580.515C631.161 579.796 628.455 578.914 626.099 577.355C624.529 576.316 623.071 574.992 621.953 573.473C617.406 567.299 586.749 517.688 585.978 513.074C585.312 509.095 586.399 504.344 588.833 501.119C589.677 500.002 590.671 499.164 591.895 498.49C600.965 493.499 611.027 489.881 620.48 485.655C628.845 481.916 637.008 477.408 645.621 474.282C648.084 473.388 650.521 472.986 653.106 472.667Z" fill="black"/>
<path d="M653.169 478.576C653.406 478.571 653.643 478.559 653.88 478.559C658.285 478.546 663.098 480.708 666.116 483.884C672.078 490.159 694.224 531.651 693.963 539.373C693.86 542.4 692.258 546.716 689.993 548.753C688.206 550.36 646.451 571.538 642.587 572.808C639.568 573.8 637.137 573.829 634.012 573.59C631.341 573.078 628.829 572.123 627.227 569.839C624.868 566.477 622.999 562.596 620.903 559.053C616.812 552.14 612.552 545.306 608.371 538.445C604.409 531.944 595.994 520.335 593.456 513.946C592.501 511.542 592.583 508.944 593.07 506.454C594.31 504.907 596.043 503.955 597.774 503.036C606.43 498.44 616.024 494.95 624.992 490.925C633.351 487.174 644.512 480.207 653.169 478.576Z" fill="#FEFEFE"/>
<path d="M508.57 419.128C512.246 418.912 516.308 419.46 519.564 421.226C522.259 422.687 524.015 424.742 525.796 427.167C531.172 434.488 556.819 479.381 558.777 486.608C559.832 490.5 559.828 494.599 557.664 498.128C556.866 499.428 555.801 500.742 554.523 501.596C547.158 506.517 500.832 525.636 492.685 527.47C487.615 527.885 482.465 527.424 478.096 524.541C475.745 522.99 474.011 520.551 472.496 518.216C465.934 508.104 460.965 496.795 455.398 486.113C450.911 477.504 443.893 468.312 442.054 458.74C441.154 454.057 441.447 449.577 444.344 445.645C444.693 445.162 445.07 444.702 445.473 444.265C445.877 443.828 446.306 443.416 446.759 443.029C447.212 442.642 447.686 442.284 448.182 441.954C448.677 441.624 449.191 441.325 449.722 441.056C459.388 436.044 473.191 431.979 483.683 428.076C491.525 425.159 500.352 420.461 508.57 419.128Z" fill="black"/>
<path d="M507.836 425.592C510.277 425.434 512.569 425.383 514.902 426.24C517.455 427.178 519.037 429.136 520.608 431.254C526.764 439.553 531.452 449.579 536.506 458.615C541.65 467.812 547.658 477.145 551.796 486.796C552.685 488.871 553.042 492.396 551.891 494.443C551.052 495.936 549.126 496.963 547.664 497.755C539.61 502.119 530.513 505.349 522.056 508.923C512.352 513.024 502.543 517.725 492.559 521.045C490.017 521.511 487.805 521.623 485.323 520.805C483.218 520.112 480.869 518.767 479.461 517.018C474.928 511.385 471.798 503.391 468.383 496.941C462.763 486.324 456.781 475.835 451.452 465.073C449.094 460.311 446.981 455.76 449.123 450.403C449.992 448.23 452.904 446.899 454.895 445.921C462.697 442.087 471.592 439.504 479.764 436.498C489.2 433.028 498.442 429.139 507.836 425.592Z" fill="#FEFEFE"/>
<path d="M463.18 553.584C467.27 553.369 471.416 553.899 475.089 555.811C477.837 557.241 479.772 559.168 481.539 561.674C484.718 566.18 511.853 616.656 513.136 621.53C514.105 625.211 513.709 629.27 511.771 632.565C510.077 635.446 507.557 637.714 504.783 639.525C496.835 644.716 487.067 648.461 478.474 652.59C468.493 657.386 457.967 663.884 447.323 666.805C442.618 667.135 438.129 666.464 433.984 664.065C430.896 662.278 428.911 659.618 427.032 656.664C423.556 651.198 398.045 601.813 396.951 597.136C396.126 593.603 396.173 588.121 398.288 585.021C400.043 582.448 402.856 580.388 405.508 578.806C411.82 575.043 419.154 572.333 425.858 569.262C436.763 564.266 451.778 555.843 463.18 553.584Z" fill="black"/>
<path d="M463.429 559.53C465.738 559.466 467.819 559.657 469.996 560.487C470.567 560.703 471.119 560.959 471.653 561.254C472.186 561.549 472.696 561.881 473.183 562.249C473.67 562.618 474.128 563.019 474.557 563.452C474.986 563.886 475.382 564.348 475.745 564.838C481.522 572.705 485.586 582.937 490.158 591.598C495.998 602.662 502.7 613.388 507.734 624.852C507.499 625.631 507.243 626.404 506.967 627.17C506.032 629.705 504.538 631.572 502.38 633.181C497.011 637.184 489.966 639.881 483.925 642.762C471.562 648.644 459.157 654.437 446.711 660.14C444.25 660.504 441.63 660.317 439.336 659.276C436.694 658.078 434.658 655.88 433.036 653.53C427.668 645.753 423.754 635.838 419.393 627.399C414.894 618.696 407.954 607.377 404.628 598.498C403.475 595.422 402.749 591.498 404.309 588.423C405.392 586.29 407.892 584.688 409.902 583.543C418.104 578.873 427.675 575.471 436.319 571.576C445.137 567.602 454.268 562.481 463.429 559.53Z" fill="#FEFEFE"/>
<path d="M413.911 456.144C417.736 456.01 421.779 456.389 425.211 458.197C428.567 459.965 430.709 462.793 432.79 465.863C440.31 476.96 447.208 492.833 453.234 505.066C456.796 512.296 461.748 520.297 463.947 528.053C464.768 530.953 464.54 535.098 462.913 537.692C461.23 540.373 458.25 542.472 455.578 544.099C450.533 547.169 444.497 549.259 439.098 551.678C426.869 557.16 411.262 565.523 398.396 568.232C393.61 568.634 389.057 567.636 385.048 564.901C382.388 563.086 380.228 560.554 378.473 557.874C372.365 548.549 367.85 537.62 362.71 527.712C358.64 519.866 353.728 512.276 350.035 504.266C348.993 502.007 348.118 499.633 347.744 497.165C346.947 491.903 348.288 486.254 351.517 482.005C353.373 479.561 355.625 478.036 358.32 476.647C367.479 471.927 378.08 469.014 387.743 465.417C395.783 462.424 405.616 457.259 413.911 456.144Z" fill="black"/>
<path d="M413.974 462.542C416.908 462.246 419.713 462.392 422.322 463.909C424.45 465.146 425.797 467.094 427.089 469.133C431.623 476.291 455.373 522.244 456.904 528.885C457.326 530.712 457.907 533.251 456.775 534.909C455.549 536.705 453.251 538.142 451.377 539.175C445.162 542.602 403.932 560.512 398.408 561.465C395.692 561.649 393.122 561.789 390.539 560.77C388.738 560.059 387.332 559.002 386.198 557.426C379.956 548.75 372.414 531.837 367.204 521.828C363.045 513.837 357.568 505.456 354.39 497.096C353.233 494.05 354.42 490.085 355.853 487.332C357.294 484.563 360.042 483.232 362.738 481.882C369.935 478.278 378.562 476.187 386.151 473.346C395.418 469.877 404.546 465.491 413.974 462.542Z" fill="#FEFEFE"/>
<path d="M516.531 648.174C519.837 648.274 523.052 648.827 525.999 650.4C528.414 651.689 530.728 653.617 532.328 655.847C535.915 660.848 564.343 713.249 565.166 716.53C566.325 721.151 565.588 725.761 562.997 729.752C561.559 731.968 559.704 733.752 557.544 735.255C552.94 738.458 547.305 740.644 542.359 743.307C530.209 749.849 517.974 757.082 505.359 762.639C503.211 763.586 501.005 764.111 498.721 764.598C493.874 764.602 489.867 764.059 485.703 761.296C482.669 759.282 480.783 756.956 478.857 753.952C475.15 748.173 449.524 697.575 448.808 693.533C447.977 688.847 449.35 683.157 452.302 679.372C453.965 677.239 456.312 675.518 458.617 674.141C466.045 669.702 474.342 666.472 482.118 662.654C490.213 658.678 498.226 653.855 506.611 650.552C509.898 649.256 513.025 648.562 516.531 648.174Z" fill="black"/>
<path d="M516.246 654.16C518.199 654.218 520.091 654.389 521.863 655.282C524.009 656.365 525.621 658.103 526.974 660.053C530.088 664.546 532.496 669.663 535.096 674.467C539.501 682.498 543.859 690.554 548.17 698.636C551.148 704.144 557.125 712.733 558.567 718.306C559.17 720.637 558.41 724.603 557.157 726.597C555.91 728.582 552.909 730.459 550.906 731.68C544.468 735.603 537.235 738.72 530.536 742.23C521.35 747.044 507.96 755.468 498.24 758.148C495.281 758.132 492.231 757.588 489.693 755.992C487.968 754.908 486.82 753.639 485.711 751.946C481.684 745.799 478.72 738.629 475.305 732.105C470.441 722.812 457.118 700.091 455.088 691.326C454.452 688.584 455.205 686.76 456.753 684.47C457.744 683.003 459.066 681.948 460.551 681.015C467.469 676.667 475.479 673.357 482.794 669.648C492.128 664.916 501.434 659.524 511.109 655.552C512.782 654.865 514.463 654.448 516.246 654.16Z" fill="#FEFEFE"/>
<path d="M546.573 284.077C547.211 283.976 547.852 283.903 548.496 283.858C549.14 283.813 549.785 283.796 550.43 283.807C551.075 283.818 551.719 283.857 552.361 283.924C553.004 283.991 553.642 284.086 554.276 284.208C554.909 284.33 555.537 284.48 556.158 284.657C556.779 284.834 557.391 285.037 557.994 285.267C558.597 285.497 559.19 285.753 559.771 286.034C560.352 286.315 560.919 286.621 561.474 286.952C564.27 288.611 566.53 290.788 568.548 293.318C572.802 298.648 588.253 325.319 589.639 331.441C590.696 336.106 590.14 341.076 587.368 345.06C585.018 348.438 581.694 350.466 577.967 352.034C558.918 360.045 538.757 366.309 519.25 373.162L416.393 409.441L361.073 429.174C352.078 432.434 342.466 437.346 333.046 438.807C331.997 438.892 330.948 438.908 329.897 438.855C328.846 438.802 327.803 438.68 326.768 438.489C325.733 438.298 324.716 438.041 323.715 437.716C322.714 437.391 321.739 437.001 320.79 436.548C320.009 436.175 319.253 435.759 318.52 435.299C317.787 434.84 317.084 434.34 316.409 433.799C315.734 433.258 315.092 432.681 314.483 432.066C313.874 431.451 313.303 430.804 312.768 430.124C307.106 422.924 302.558 411.528 298.305 403.245C295.798 398.363 292.613 393.674 290.84 388.454C289.19 383.596 289.3 378.338 291.752 373.757C294.055 369.455 296.532 367.905 300.821 365.989C310.753 361.554 321.777 358.617 332.125 355.141L395.202 334.067L486.849 303.608C506.629 297.002 526.487 289.628 546.573 284.077Z" fill="black"/>
<path d="M549.601 290.077C553.48 290.191 557.175 291.346 560.21 293.794C561.891 295.151 563.314 296.804 564.526 298.586C568.965 305.108 572.374 312.495 576.237 319.385C578.091 322.69 580.491 325.712 582.015 329.188C582.798 330.973 583.388 332.853 583.518 334.807C583.7 337.545 582.831 340.548 580.856 342.528C578.816 344.573 575.447 345.919 572.769 346.967C552.229 355.004 531.055 361.862 510.238 369.144L416.604 402.234L376.456 416.744C367.656 419.991 336.793 432.506 330.079 432.612C327.999 432.253 325.827 431.709 323.924 430.788C321.115 429.429 318.911 427.31 317.133 424.769C313.384 419.411 310.813 412.674 307.777 406.864C304.171 399.962 298.953 392.591 296.692 385.206C295.823 382.364 295.633 379.055 297.136 376.383C298.522 373.919 300.402 372.787 302.95 371.77C311.811 368.236 321.356 365.954 330.408 362.868L415.926 334.33C448.612 323.189 481.368 312.256 514.193 301.532C525.943 297.765 537.667 293.136 549.601 290.077Z" fill="#FEFEFE"/>
</g>
<defs>
<clipPath id="clip0_2049_270">
<rect width="1024" height="1024" fill="white"/>
</clipPath>
</defs>
</svg>
